<?xml version="1.0" encoding="UTF-8"?>
<svg version="1.1" xmlns="http://www.w3.org/2000/svg" width="1024" height="1024">
<path d="M0 0 C0.76731445 0.38978027 1.53462891 0.77956055 2.32519531 1.18115234 C20.3763827 10.49327282 37.41587213 21.98598179 53 35 C53.88365234 35.73138184 53.88365234 35.73138184 54.78515625 36.47753906 C68.75318856 48.0953239 81.82401047 60.64788556 93 75 C93.94904991 76.16242577 94.90106959 77.32243091 95.85546875 78.48046875 C134.31073965 125.33168411 156.61681429 185.38038301 158 246 C158.02046387 246.81855469 158.04092773 247.63710938 158.06201172 248.48046875 C159.6025138 319.06347319 136.94821736 388.70742894 90 442 C89.36449219 442.73476563 88.72898437 443.46953125 88.07421875 444.2265625 C86.39604655 446.1632118 84.70177422 448.08406992 83 450 C82.29230469 450.80050781 81.58460938 451.60101562 80.85546875 452.42578125 C73.66388892 460.49946287 66.37319744 467.88340144 57.90625 474.62890625 C55.61256543 476.50023223 53.40051179 478.41139191 51.19140625 480.37890625 C39.89986505 490.30391283 27.13919248 498.7313845 14 506 C12.7615332 506.68594238 12.7615332 506.68594238 11.49804688 507.38574219 C-31.90690796 531.19099038 -79.07604756 544.21247916 -128.6875 544.25 C-129.49747437 544.25067474 -130.30744873 544.25134949 -131.14196777 544.25204468 C-170.57349634 544.20025026 -208.94040357 535.919027 -245 520 C-245.75861328 519.66887207 -246.51722656 519.33774414 -247.29882812 518.99658203 C-270.25297231 508.89901503 -291.99367361 495.36343485 -311 479 C-312.04550082 478.13635459 -313.09245783 477.27446993 -314.140625 476.4140625 C-328.0044566 464.92780573 -340.96800495 452.24204149 -352 438 C-352.92222261 436.88636632 -353.84826921 435.77589249 -354.77734375 434.66796875 C-401.6091396 378.39354044 -421.20544448 302.11047328 -415.25 229.9375 C-410.88864901 184.3700086 -396.28500295 140.26994407 -371 102 C-370.55978516 101.32469238 -370.11957031 100.64938477 -369.66601562 99.95361328 C-354.65914846 77.03254062 -336.01214253 55.61887728 -315 38 C-314.43216797 37.52369141 -313.86433594 37.04738281 -313.27929688 36.55664062 C-304.83469192 29.50372031 -296.33822869 22.85060877 -287 17 C-286.05769531 16.39285156 -285.11539063 15.78570312 -284.14453125 15.16015625 C-266.28933543 3.86495475 -247.72912766 -5.45026385 -228 -13 C-226.84999512 -13.44400146 -226.84999512 -13.44400146 -225.67675781 -13.89697266 C-204.19365728 -22.03778211 -180.8084718 -26.72559401 -158 -29 C-157.10240967 -29.0928125 -156.20481934 -29.185625 -155.2800293 -29.28125 C-102.15712891 -34.28820518 -47.56814783 -24.23154525 0 0 Z M-281 46 C-281.94770264 46.6820752 -281.94770264 46.6820752 -282.91455078 47.37792969 C-286.70634671 50.13772074 -290.37166664 53.02678238 -294 56 C-294.57878906 56.47195801 -295.15757812 56.94391602 -295.75390625 57.43017578 C-306.01848258 65.86140289 -315.1491715 75.10834885 -324 85 C-324.4945166 85.54591797 -324.9890332 86.09183594 -325.49853516 86.65429688 C-346.52581199 109.98361556 -361.97064309 137.72120137 -373 167 C-373.29841797 167.78358887 -373.59683594 168.56717773 -373.90429688 169.37451172 C-398.07689583 233.88691258 -392.15810847 306.2033938 -364.2265625 368.3894043 C-336.06665735 428.57846227 -283.91307284 476.59444961 -221.75 500 C-195.98608837 509.30613583 -169.47208727 515.53738713 -142 516 C-140.78763672 516.02271973 -140.78763672 516.02271973 -139.55078125 516.04589844 C-133.36457705 516.14300195 -127.18588149 516.09591389 -121 516 C-120.15018555 515.99274902 -119.30037109 515.98549805 -118.42480469 515.97802734 C-57.10219968 515.28729926 2.83732316 489.29820895 47.3359375 447.47265625 C49.5064653 445.45807547 51.71320023 443.56493438 54 441.6875 C59.45783937 436.954353 63.93470037 431.26545512 68.54345703 425.72851562 C69.82458316 424.2081715 71.14203981 422.71859875 72.46484375 421.234375 C86.83550086 404.87908471 97.53320147 385.49346149 107 366 C107.31227539 365.36400879 107.62455078 364.72801758 107.94628906 364.07275391 C136.38135274 305.26931596 137.82635451 234.21206097 117 173 C106.76922567 144.05528258 92.25748263 117.87316498 73 94 C72.20851563 93.00355469 71.41703125 92.00710938 70.6015625 90.98046875 C59.33044892 77.06303619 46.36352932 63.72614636 32 53 C31.4548877 52.58379395 30.90977539 52.16758789 30.34814453 51.73876953 C-44.90683746 -5.6975486 -143.45274123 -18.311639 -281 46 Z " fill="#57A0DD" transform="translate(641,255)"/>
<path d="M0 0 C0.97582031 0.00902344 1.95164062 0.01804687 2.95703125 0.02734375 C4.06111328 0.04474609 4.06111328 0.04474609 5.1875 0.0625 C5.6825 1.5475 5.6825 1.5475 6.1875 3.0625 C7.30125 2.815 8.415 2.5675 9.5625 2.3125 C17.37857064 1.32856203 24.01070142 5.75310564 30.1875 10.0625 C33.97574315 12.00281966 36.08613259 12.23431926 40.1875 11.0625 C39.6925 7.5975 39.6925 7.5975 39.1875 4.0625 C40.15171875 4.00191406 41.1159375 3.94132812 42.109375 3.87890625 C43.37265625 3.79511719 44.6359375 3.71132813 45.9375 3.625 C47.19046875 3.54378906 48.4434375 3.46257812 49.734375 3.37890625 C52.98753065 3.17086877 52.98753065 3.17086877 55.29296875 2.53125 C57.81194269 1.90799872 60.15937613 1.96827808 62.75 2 C63.70003906 2.00902344 64.65007812 2.01804687 65.62890625 2.02734375 C66.47324219 2.03894531 67.31757813 2.05054688 68.1875 2.0625 C69.1775 2.0625 70.1675 2.0625 71.1875 2.0625 C72.5075 2.0625 73.8275 2.0625 75.1875 2.0625 C75.1875 2.7225 75.1875 3.3825 75.1875 4.0625 C76.5075 4.0625 77.8275 4.0625 79.1875 4.0625 C79.5175 5.3825 79.8475 6.7025 80.1875 8.0625 C80.8475 8.0625 81.5075 8.0625 82.1875 8.0625 C82.1875 8.7225 82.1875 9.3825 82.1875 10.0625 C82.8475 10.0625 83.5075 10.0625 84.1875 10.0625 C84.24292969 10.71089844 84.29835938 11.35929687 84.35546875 12.02734375 C85.56458575 16.43806634 87.98752094 19.83840478 90.5 23.625 C90.98662109 24.37974609 91.47324219 25.13449219 91.97460938 25.91210938 C94.45385299 29.69937922 96.93179337 32.8970208 100.1875 36.0625 C100.9375 38.8125 100.9375 38.8125 101.1875 41.0625 C102.1775 41.3925 103.1675 41.7225 104.1875 42.0625 C105.16523528 43.68082047 106.13175291 45.30747023 107.02734375 46.97265625 C110.46791941 53.1703262 114.70641103 58.874964 119.0859375 64.43359375 C120.1875 66.0625 120.1875 66.0625 120.1875 68.0625 C120.8475 68.3925 121.5075 68.7225 122.1875 69.0625 C125.1875 74.48557692 125.1875 74.48557692 125.1875 77.0625 C126.1775 77.3925 127.1675 77.7225 128.1875 78.0625 C128.1875 78.7225 128.1875 79.3825 128.1875 80.0625 C128.8475 80.0625 129.5075 80.0625 130.1875 80.0625 C130.67089844 81.28066406 131.15429688 82.49882812 131.65234375 83.75390625 C134.30134557 89.70861973 137.89592333 94.96095815 141.58764648 100.31274414 C142.76040159 102.0150988 143.9188778 103.72656034 145.07617188 105.43945312 C148.94876882 111.41600751 148.94876882 111.41600751 154.1875 116.0625 C155.24475253 118.03283426 156.23185012 120.04093296 157.1875 122.0625 C161.26819714 130.09881544 166.10448594 138.19673552 172.68359375 144.42578125 C175.63835538 147.53726971 177.35333739 150.68767014 179.25 154.5 C179.90440481 155.79196356 180.56193046 157.08235137 181.22265625 158.37109375 C181.5050415 158.93626709 181.78742676 159.50144043 182.07836914 160.08374023 C183.62728784 162.84710939 185.42266986 165.43325472 187.1875 168.0625 C187.98171649 139.87597863 188.42848987 111.6998032 188.48266602 83.50195312 C188.49168116 79.32537959 188.51298588 75.14912214 188.54418945 70.97265625 C188.58278554 65.80187983 188.60143765 60.6313872 188.60594749 55.46047211 C188.61075653 53.52941759 188.62220328 51.59836571 188.64098549 49.66739655 C189.23141637 31.27821533 189.23141637 31.27821533 181.66572571 15.23614502 C178.24227778 12.23344816 176.53326147 12.0625 172.0625 12.0625 C169.1875 12.0625 169.1875 12.0625 167.1875 11.0625 C166.20241866 8.68188677 166.06782963 7.45454893 166.82421875 4.9765625 C168.1875 3.0625 168.1875 3.0625 170.75390625 2.41796875 C171.74261719 2.36253906 172.73132813 2.30710937 173.75 2.25 C174.74128906 2.18167969 175.73257813 2.11335938 176.75390625 2.04296875 C179.1875 2.0625 179.1875 2.0625 180.1875 3.0625 C182.11640852 3.16246299 184.04897278 3.19330962 185.98046875 3.1953125 C187.76227539 3.19724609 187.76227539 3.19724609 189.58007812 3.19921875 C190.83240234 3.19535156 192.08472656 3.19148438 193.375 3.1875 C195.22448242 3.19330078 195.22448242 3.19330078 197.11132812 3.19921875 C198.30564453 3.19792969 199.49996094 3.19664062 200.73046875 3.1953125 C201.82383545 3.19418457 202.91720215 3.19305664 204.04370117 3.19189453 C207.17195173 3.06313995 210.10702199 2.6003318 213.1875 2.0625 C215.52052989 2.02487049 217.85463319 2.01584266 220.1875 2.0625 C221.54189668 4.77129335 221.25251451 7.07183268 221.1875 10.0625 C218.53762202 11.27387279 216.6270679 12.0734892 213.6875 12 C210.36320793 12.0831073 208.81588258 13.05662908 206.1875 15.0625 C202.17707125 20.70680713 200.86318674 26.04112246 200.56860352 32.88018799 C200.530934 33.62895808 200.49326448 34.37772818 200.45445347 35.14918828 C200.10054988 42.75793797 200.06053696 50.36369178 200.08984375 57.97949219 C200.09177059 59.4848526 200.09323075 60.99021367 200.0942688 62.49557495 C200.09739356 65.69993072 200.10360614 68.90425909 200.11233521 72.10860443 C200.12605251 77.198479 200.13179251 82.28834507 200.13647461 87.37823486 C200.14843243 99.10407288 200.17046202 110.82988761 200.19270325 122.55570984 C200.21299922 133.3067696 200.2310429 144.05782126 200.24091816 154.8088963 C200.24503733 159.02968205 200.25125358 163.25044148 200.26266479 167.47121429 C200.30885488 184.70334825 200.21909743 201.85228692 199.1875 219.0625 C191.5975 219.3925 184.0075 219.7225 176.1875 220.0625 C174.35155905 217.00259841 172.6020866 214.00521558 170.92578125 210.87109375 C167.57082374 204.80147621 163.55153813 199.21723379 159.56445312 193.55273438 C159.00048828 192.74255859 158.43652344 191.93238281 157.85546875 191.09765625 C157.34266357 190.3694165 156.8298584 189.64117676 156.30151367 188.89086914 C155.1875 187.0625 155.1875 187.0625 155.1875 185.0625 C154.5275 185.0625 153.8675 185.0625 153.1875 185.0625 C152.2109375 183.3046875 151.234375 181.546875 150.2578125 179.7890625 C149.17852726 177.9012386 149.17852726 177.9012386 147.1875 176.0625 C146.18262824 174.36915925 145.20844458 172.6575448 144.25 170.9375 C138.30183099 160.63065183 131.75041155 150.59686156 123.6640625 141.83984375 C121.50848724 139.24516983 120.0507229 136.37963484 118.48828125 133.40234375 C116.60291691 130.01095264 114.35147587 126.91853553 112.1015625 123.76171875 C109.9451674 120.72076158 107.83827414 117.65063685 105.75 114.5625 C105.07066406 113.5621875 104.39132812 112.561875 103.69140625 111.53125 C102.1875 109.0625 102.1875 109.0625 102.1875 107.0625 C101.5275 107.0625 100.8675 107.0625 100.1875 107.0625 C96.1875 100.3125 96.1875 100.3125 96.1875 98.0625 C95.5275 98.0625 94.8675 98.0625 94.1875 98.0625 C92.75 95.875 92.75 95.875 91.1875 93.0625 C88.4041422 88.26696953 85.32350676 83.67463195 82.25 79.0625 C81.46206055 77.87140625 81.46206055 77.87140625 80.65820312 76.65625 C77.98462435 72.64086261 75.21874124 68.81904952 72.1875 65.0625 C71.14298562 63.08538349 70.13051862 61.08999004 69.1875 59.0625 C67.5375 59.0625 65.8875 59.0625 64.1875 59.0625 C64.19797363 60.08085937 64.20844727 61.09921875 64.21923828 62.1484375 C64.25567446 65.95780873 64.2784857 69.76716481 64.29736328 73.57666016 C64.30736737 75.21959023 64.32097494 76.86250274 64.33837891 78.50537109 C64.36287515 80.87862505 64.37403917 83.25164185 64.3828125 85.625 C64.39313507 86.34929199 64.40345764 87.07358398 64.41409302 87.81982422 C64.4151826 92.86966915 63.56989063 97.20260767 62.1875 102.0625 C60.60114978 101.83241867 59.01839116 101.57750488 57.4375 101.3125 C56.55578125 101.17328125 55.6740625 101.0340625 54.765625 100.890625 C51.46401397 99.83010752 50.16989025 98.92849606 48.1875 96.0625 C47.86179666 93.12818184 47.76254862 90.60573562 47.875 87.6875 C47.89046875 86.89617676 47.9059375 86.10485352 47.921875 85.28955078 C48.09283554 78.19896226 48.55154998 71.12608772 49.1875 64.0625 C47.5375 64.3925 45.8875 64.7225 44.1875 65.0625 C43.51565382 62.95998139 42.85019032 60.85542237 42.1875 58.75 C41.81625 57.57824219 41.445 56.40648437 41.0625 55.19921875 C40.1875 52.0625 40.1875 52.0625 40.1875 49.0625 C39.5275 48.7325 38.8675 48.4025 38.1875 48.0625 C35.89887981 43.34222086 34.69320159 38.03815463 33.81640625 32.87890625 C33.60886719 32.27949219 33.40132813 31.68007813 33.1875 31.0625 C31.7025 30.5675 31.7025 30.5675 30.1875 30.0625 C29.775 29.010625 29.3625 27.95875 28.9375 26.875 C27.11811866 22.33121173 24.35072169 19.59429286 20.1875 17.0625 C17.55433439 16.06290833 14.95847685 15.28638396 12.2265625 14.60546875 C10.1875 14.0625 10.1875 14.0625 9.1875 13.0625 C6.85502239 12.72323053 4.52164529 12.39009934 2.1875 12.0625 C1.5275 11.7325 0.8675 11.4025 0.1875 11.0625 C-8.36074793 10.20767521 -17.90312589 11.6187507 -24.8125 17.0625 C-26.4571674 19.52576712 -26.4571674 19.52576712 -27.8125 22.0625 C-28.8125 23.0625 -29.8125 24.0625 -30.8125 25.0625 C-35.92848017 32.52330441 -37.24037418 39.14053094 -36.8125 48.0625 C-36.8125 49.0525 -36.8125 50.0425 -36.8125 51.0625 C-36.66122598 52.62656528 -36.49347478 54.18909252 -36.3125 55.75 C-36.2196875 56.55824219 -36.126875 57.36648438 -36.03125 58.19921875 C-35.9590625 58.81410156 -35.886875 59.42898438 -35.8125 60.0625 C-35.1525 60.0625 -34.4925 60.0625 -33.8125 60.0625 C-33.35875 61.196875 -32.905 62.33125 -32.4375 63.5 C-31.24154194 67.10971692 -31.24154194 67.10971692 -28.8125 68.0625 C-28.8125 69.0525 -28.8125 70.0425 -28.8125 71.0625 C-28.24660156 71.33191406 -27.68070312 71.60132813 -27.09765625 71.87890625 C-24.70599399 73.11766465 -22.51036561 74.53653429 -20.25 76 C-15.73216518 78.75461505 -11.54700912 80.07021457 -6.4296875 81.2734375 C-2.99631635 82.30857328 -0.3638577 83.99489352 2.53125 86.07421875 C4.29542152 87.31870467 4.29542152 87.31870467 7.1875 87.0625 C7.1875 87.7225 7.1875 88.3825 7.1875 89.0625 C8.8375 88.7325 10.4875 88.4025 12.1875 88.0625 C12.5175 89.0525 12.8475 90.0425 13.1875 91.0625 C15.00281664 91.57626886 16.82636032 92.06926352 18.671875 92.4609375 C21.60944632 93.16340021 24.39889418 94.12926204 27.25 95.125 C30.58095601 96.26871171 33.36325075 97.08335178 36.875 97.5 C43.07985971 98.55365542 48.11201695 102.36013001 53.3125 105.75 C56.87561924 108.01873261 60.08439381 109.09706325 64.1875 110.0625 C65.6725 110.5575 65.6725 110.5575 67.1875 111.0625 C67.1875 111.7225 67.1875 112.3825 67.1875 113.0625 C67.8475 113.0625 68.5075 113.0625 69.1875 113.0625 C69.1875 113.7225 69.1875 114.3825 69.1875 115.0625 C69.8475 115.0625 70.5075 115.0625 71.1875 115.0625 C71.1875 115.7225 71.1875 116.3825 71.1875 117.0625 C71.8475 117.0625 72.5075 117.0625 73.1875 117.0625 C73.1875 117.7225 73.1875 118.3825 73.1875 119.0625 C73.8475 119.0625 74.5075 119.0625 75.1875 119.0625 C75.1875 119.7225 75.1875 120.3825 75.1875 121.0625 C75.8475 121.0625 76.5075 121.0625 77.1875 121.0625 C77.1875 121.7225 77.1875 122.3825 77.1875 123.0625 C77.8475 123.0625 78.5075 123.0625 79.1875 123.0625 C79.1875 123.7225 79.1875 124.3825 79.1875 125.0625 C79.8475 125.0625 80.5075 125.0625 81.1875 125.0625 C82.95212683 128.15059695 83.1875 129.29562136 83.1875 133.0625 C83.8475 133.0625 84.5075 133.0625 85.1875 133.0625 C85.1875 135.0425 85.1875 137.0225 85.1875 139.0625 C85.8475 139.0625 86.5075 139.0625 87.1875 139.0625 C88.28870164 146.15913281 88.33651479 153.14008229 88.3125 160.3125 C88.31636719 161.48296875 88.32023438 162.6534375 88.32421875 163.859375 C88.32228516 165.54546875 88.32228516 165.54546875 88.3203125 167.265625 C88.31918457 168.28301758 88.31805664 169.30041016 88.31689453 170.34863281 C88.2023218 172.7516338 87.87646608 174.76777086 87.1875 177.0625 C86.5275 177.0625 85.8675 177.0625 85.1875 177.0625 C85.1875 179.0425 85.1875 181.0225 85.1875 183.0625 C84.5275 183.0625 83.8675 183.0625 83.1875 183.0625 C83.1875 184.3825 83.1875 185.7025 83.1875 187.0625 C82.5275 187.0625 81.8675 187.0625 81.1875 187.0625 C81.1875 188.3825 81.1875 189.7025 81.1875 191.0625 C80.5275 191.0625 79.8675 191.0625 79.1875 191.0625 C79.1875 192.3825 79.1875 193.7025 79.1875 195.0625 C77.5375 195.3925 75.8875 195.7225 74.1875 196.0625 C71.83716509 191.50872611 71.7417191 187.08012683 72.1875 182.0625 C72.5175 181.7325 72.8475 181.4025 73.1875 181.0625 C73.86921467 171.68892327 70.59414291 163.73823075 67.0546875 155.19140625 C66.36833035 153.50643037 65.76284597 151.7885379 65.1875 150.0625 C64.5275 150.0625 63.8675 150.0625 63.1875 150.0625 C62.19805681 148.7887007 61.2691514 147.46740671 60.375 146.125 C58.00878029 142.75905471 58.00878029 142.75905471 54.3125 141.0625 C53.61125 141.0625 52.91 141.0625 52.1875 141.0625 C51.8575 139.7425 51.5275 138.4225 51.1875 137.0625 C50.424375 136.918125 49.66125 136.77375 48.875 136.625 C46.1875 136.0625 46.1875 136.0625 43.1875 135.0625 C43.1875 134.4025 43.1875 133.7425 43.1875 133.0625 C42.5275 133.0625 41.8675 133.0625 41.1875 133.0625 C41.1875 132.4025 41.1875 131.7425 41.1875 131.0625 C39.8675 131.0625 38.5475 131.0625 37.1875 131.0625 C37.1875 130.4025 37.1875 129.7425 37.1875 129.0625 C35.2075 129.0625 33.2275 129.0625 31.1875 129.0625 C31.1875 128.4025 31.1875 127.7425 31.1875 127.0625 C30.176875 126.959375 29.16625 126.85625 28.125 126.75 C23.97531792 126.02545233 20.97393737 124.83980734 17.1875 123.0625 C17.1875 122.4025 17.1875 121.7425 17.1875 121.0625 C11.9075 121.0625 6.6275 121.0625 1.1875 121.0625 C1.1875 120.4025 1.1875 119.7425 1.1875 119.0625 C-0.7925 119.0625 -2.7725 119.0625 -4.8125 119.0625 C-4.8125 118.4025 -4.8125 117.7425 -4.8125 117.0625 C-5.4725 117.0625 -6.1325 117.0625 -6.8125 117.0625 C-6.8125 116.4025 -6.8125 115.7425 -6.8125 115.0625 C-7.4725 115.0625 -8.1325 115.0625 -8.8125 115.0625 C-8.8125 114.4025 -8.8125 113.7425 -8.8125 113.0625 C-10.1325 113.0625 -11.4525 113.0625 -12.8125 113.0625 C-12.8125 112.4025 -12.8125 111.7425 -12.8125 111.0625 C-14.1325 111.0625 -15.4525 111.0625 -16.8125 111.0625 C-16.8125 110.4025 -16.8125 109.7425 -16.8125 109.0625 C-17.62976563 109.145 -18.44703125 109.2275 -19.2890625 109.3125 C-23.93372516 108.98294522 -27.13146428 107.23354263 -31.1875 105.0625 C-32.29158203 104.49015625 -32.29158203 104.49015625 -33.41796875 103.90625 C-35.2218234 102.96918265 -37.01797259 102.01730793 -38.8125 101.0625 C-38.8125 100.4025 -38.8125 99.7425 -38.8125 99.0625 C-39.4725 99.0625 -40.1325 99.0625 -40.8125 99.0625 C-40.8125 98.4025 -40.8125 97.7425 -40.8125 97.0625 C-41.4725 97.0625 -42.1325 97.0625 -42.8125 97.0625 C-42.8125 96.4025 -42.8125 95.7425 -42.8125 95.0625 C-43.4725 95.0625 -44.1325 95.0625 -44.8125 95.0625 C-44.8125 94.4025 -44.8125 93.7425 -44.8125 93.0625 C-45.4725 93.0625 -46.1325 93.0625 -46.8125 93.0625 C-46.8125 92.4025 -46.8125 91.7425 -46.8125 91.0625 C-47.4725 91.0625 -48.1325 91.0625 -48.8125 91.0625 C-48.8125 89.7425 -48.8125 88.4225 -48.8125 87.0625 C-49.4725 87.0625 -50.1325 87.0625 -50.8125 87.0625 C-50.8125 86.4025 -50.8125 85.7425 -50.8125 85.0625 C-51.4725 85.0625 -52.1325 85.0625 -52.8125 85.0625 C-56.96252087 76.85897037 -57.59383987 69.16066261 -57.8125 60.0625 C-57.85246094 59.00417969 -57.89242188 57.94585937 -57.93359375 56.85546875 C-58.11319616 48.79448998 -57.37325093 40.74475279 -54.8125 33.0625 C-54.1525 33.0625 -53.4925 33.0625 -52.8125 33.0625 C-52.8125 31.7425 -52.8125 30.4225 -52.8125 29.0625 C-52.1525 29.0625 -51.4925 29.0625 -50.8125 29.0625 C-50.8125 27.7425 -50.8125 26.4225 -50.8125 25.0625 C-50.1525 25.0625 -49.4925 25.0625 -48.8125 25.0625 C-48.8125 23.7425 -48.8125 22.4225 -48.8125 21.0625 C-48.1525 21.0625 -47.4925 21.0625 -46.8125 21.0625 C-46.8125 20.4025 -46.8125 19.7425 -46.8125 19.0625 C-46.1525 19.0625 -45.4925 19.0625 -44.8125 19.0625 C-44.8125 18.4025 -44.8125 17.7425 -44.8125 17.0625 C-44.1525 17.0625 -43.4925 17.0625 -42.8125 17.0625 C-42.8125 16.4025 -42.8125 15.7425 -42.8125 15.0625 C-42.1525 15.0625 -41.4925 15.0625 -40.8125 15.0625 C-40.8125 14.4025 -40.8125 13.7425 -40.8125 13.0625 C-40.1525 13.0625 -39.4925 13.0625 -38.8125 13.0625 C-38.8125 12.4025 -38.8125 11.7425 -38.8125 11.0625 C-35.72440305 9.29787317 -34.57937864 9.0625 -30.8125 9.0625 C-30.8125 8.4025 -30.8125 7.7425 -30.8125 7.0625 C-29.4925 7.0625 -28.1725 7.0625 -26.8125 7.0625 C-26.8125 6.4025 -26.8125 5.7425 -26.8125 5.0625 C-25.4925 5.0625 -24.1725 5.0625 -22.8125 5.0625 C-22.8125 4.4025 -22.8125 3.7425 -22.8125 3.0625 C-18.8525 3.0625 -14.8925 3.0625 -10.8125 3.0625 C-10.8125 2.4025 -10.8125 1.7425 -10.8125 1.0625 C-7.13862505 0.20951624 -3.7677607 -0.04539471 0 0 Z " fill="#974BBB" transform="translate(443.8125,399.9375)"/>
<path d="M0 0 C0.226875 0.556875 0.45375 1.11375 0.6875 1.6875 C1.92417116 4.16536204 1.92417116 4.16536204 4.375 6.0625 C7.49437894 9.55323358 8.57967966 12.64894924 10.01953125 17.05078125 C10.94944611 19.98211877 10.94944611 19.98211877 12.13671875 22.66796875 C16.08602741 32.04930897 15.53311688 41.05922084 14.25 51 C13.90352771 54.58546321 13.95137029 55.88284661 15.375 59.3125 C22.17324091 66.27260379 29.43630936 69.71258011 39 71 C40 72 40 72 40.0625 75.5625 C40.041875 76.696875 40.02125 77.83125 40 79 C38.85523193 79.02505615 37.71046387 79.0501123 36.53100586 79.07592773 C32.26120886 79.17049578 27.99155592 79.27059352 23.72192383 79.37231445 C21.87820825 79.41547728 20.03445748 79.45716451 18.19067383 79.49731445 C15.5319562 79.55547166 12.87341265 79.61903219 10.21484375 79.68359375 C9.39789536 79.70030624 8.58094696 79.71701874 7.73924255 79.73423767 C3.07833808 79.85337785 -1.39814399 80.24423054 -6 81 C-6 80.67 -6 80.34 -6 80 C-16.89882416 79.73253371 -16.89882416 79.73253371 -27.75 80.5 C-44.87707576 82.75959508 -61.32269798 80.34550121 -76.46484375 72.1171875 C-82.77066321 68.70307222 -88.36903404 65.77867684 -95.7109375 66.22265625 C-98.64373443 67.21860606 -99.53611616 68.41221694 -101.1875 71 C-101.83300457 72.31381848 -102.4516498 73.6427575 -103 75 C-104.98 74.34 -106.96 73.68 -109 73 C-109.02319395 64.87217731 -109.04095104 56.74436851 -109.05181217 48.61652088 C-109.05702557 44.84223573 -109.06409517 41.06797327 -109.07543945 37.29370117 C-109.0863232 33.6497494 -109.09228847 30.00581942 -109.09487724 26.36185265 C-109.0967216 24.97322942 -109.10032316 23.58460735 -109.10573006 22.19599342 C-109.11301321 20.24761752 -109.11340868 18.29921959 -109.11352539 16.35083008 C-109.115746 15.2427449 -109.11796661 14.13465973 -109.12025452 12.99299622 C-109.00853882 10.21252142 -108.63378418 7.70416282 -108 5 C-105.1875 4.75 -105.1875 4.75 -102 5 C-98.75666251 8.18096561 -98.43803683 11.36653893 -97.8125 15.75 C-96.78136876 21.82539517 -94.91461309 27.00998972 -92.125 32.5 C-91.79733643 33.14549805 -91.46967285 33.79099609 -91.13208008 34.45605469 C-89.08371826 38.3255718 -86.76490986 41.87241998 -84.14404297 45.37841797 C-82.95048203 47.07018745 -81.97888668 48.80175629 -81 50.625 C-74.65031617 61.34009146 -63.48100333 66.68318698 -51.83984375 69.86328125 C-38.19066354 72.50679837 -24.95812888 70.12936867 -13.25390625 62.65625 C-6.62479679 57.78494599 -3.35319801 51.37406818 0 44 C-0.66 43.01 -1.32 42.02 -2 41 C-2.32105004 38.34908592 -2.5371806 35.78186977 -2.66796875 33.12109375 C-2.73386955 31.96928368 -2.73386955 31.96928368 -2.80110168 30.79420471 C-2.89185714 29.17301829 -2.97815138 27.55157683 -3.06030273 25.92993164 C-3.18723082 23.44277453 -3.32980996 20.95687711 -3.47460938 18.47070312 C-3.56082419 16.89588388 -3.64614135 15.32101519 -3.73046875 13.74609375 C-3.77310349 13.00024521 -3.81573822 12.25439667 -3.85966492 11.48594666 C-4.11567901 6.23135801 -4.11567901 6.23135801 -3 4 C-2.34 4 -1.68 4 -1 4 C-0.67 2.68 -0.34 1.36 0 0 Z " fill="#4243B4" transform="translate(495,541)"/>
<path d="M0 0 C0.99 0.495 0.99 0.495 2 1 C0.38405168 3.04119788 -1.2856382 5.04072937 -3 7 C-3.66 7 -4.32 7 -5 7 C-5.2256665 7.55381348 -5.45133301 8.10762695 -5.68383789 8.67822266 C-7.39515457 11.6970729 -9.56488864 13.73444581 -12.05859375 16.1484375 C-13.09000293 17.15673459 -14.12107776 18.16537378 -15.15185547 19.17431641 C-15.68921326 19.69713196 -16.22657104 20.21994751 -16.7802124 20.75860596 C-25.92616935 29.67888651 -34.58212767 38.56292349 -42 49 C-42.82347406 50.10829455 -43.64904829 51.21503129 -44.4765625 52.3203125 C-51.27122726 61.49153344 -57.24646157 71.14927876 -63 81 C-63.36335449 81.6192334 -63.72670898 82.2384668 -64.10107422 82.87646484 C-73.32378229 98.79214824 -79.95400322 116.25325839 -85.84375 133.63671875 C-86.5388307 135.65855822 -87.2752197 137.66782701 -88.08984375 139.64453125 C-89.03667028 142.09490205 -89.58273905 144.41977302 -90.0625 147 C-90.21847656 147.825 -90.37445313 148.65 -90.53515625 149.5 C-90.85109593 151.19917137 -91.15941922 152.89977287 -91.4609375 154.6015625 C-92 157 -92 157 -93.5625 160.375 C-95.11487545 164.28968591 -95.07310394 166.8330755 -95 171 C-95.48387182 172.90322914 -95.97019832 174.80608896 -96.4921875 176.69921875 C-97.30663262 180.38928163 -97.50329862 184.11077116 -97.75390625 187.875 C-97.93016656 190.11322615 -98.18406225 192.34586317 -98.48828125 194.5703125 C-99.22732152 200.31612882 -99.40023057 206.09049265 -99.625 211.875 C-99.6765625 212.99519531 -99.728125 214.11539063 -99.78125 215.26953125 C-100.01541107 221.17176758 -99.93908187 226.8187017 -99.23046875 232.68188477 C-99.00479184 234.95180239 -98.97883245 237.13099005 -99.0234375 239.41015625 C-99.08760799 244.82067906 -98.35977147 250.08567897 -97.625 255.4375 C-97.49867188 256.41009766 -97.37234375 257.38269531 -97.2421875 258.38476562 C-96.50511906 263.90172288 -95.58917878 269.33087693 -94.39257812 274.76733398 C-93.7862885 278.21541772 -93.87065701 281.50773935 -94 285 C-95.64630856 282.02978497 -96.43705822 279.40496681 -97 276.0625 C-97.1640332 275.09634766 -97.32806641 274.13019531 -97.49707031 273.13476562 C-97.66303711 272.10029297 -97.82900391 271.06582031 -98 270 C-98.26055176 268.37868164 -98.26055176 268.37868164 -98.52636719 266.72460938 C-109.45671228 197.04109599 -96.13401254 124.23101825 -57 65 C-56.55978516 64.32469238 -56.11957031 63.64938477 -55.66601562 62.95361328 C-41.55192722 41.39614614 -24.17745275 20.83584993 -4.5625 4.0625 C-2.22875842 2.08787121 -2.22875842 2.08787121 0 0 Z " fill="#88FAF6" transform="translate(327,292)"/>
<path d="M0 0 C2.97 0 5.94 0 9 0 C5 2 5 2 1.93359375 3.19140625 C-13.25906248 9.1496435 -22.49711809 18.03134311 -29.375 32.9375 C-34.35648706 44.52487208 -34.2406774 61.76024572 -29.875 73.5 C-28.53360543 76.39476581 -28.53360543 76.39476581 -27 79 C-26.54238281 79.83273437 -26.08476562 80.66546875 -25.61328125 81.5234375 C-18.08476791 93.94032799 -5.31621984 100.47756493 7.875 105.4375 C8.85863525 105.81511475 9.84227051 106.19272949 10.85571289 106.58178711 C20.49966477 110.25497433 30.23208675 113.67270425 40 117 C40 117.33 40 117.66 40 118 C34.72 118 29.44 118 24 118 C24 117.34 24 116.68 24 116 C22.02 116 20.04 116 18 116 C18 115.34 18 114.68 18 114 C17.34 114 16.68 114 16 114 C16 113.34 16 112.68 16 112 C15.34 112 14.68 112 14 112 C14 111.34 14 110.68 14 110 C12.68 110 11.36 110 10 110 C10 109.34 10 108.68 10 108 C8.68 108 7.36 108 6 108 C6 107.34 6 106.68 6 106 C5.18273437 106.0825 4.36546875 106.165 3.5234375 106.25 C-1.12122516 105.92044522 -4.31896428 104.17104263 -8.375 102 C-9.47908203 101.42765625 -9.47908203 101.42765625 -10.60546875 100.84375 C-12.4093234 99.90668265 -14.20547259 98.95480793 -16 98 C-16 97.34 -16 96.68 -16 96 C-16.66 96 -17.32 96 -18 96 C-18 95.34 -18 94.68 -18 94 C-18.66 94 -19.32 94 -20 94 C-20 93.34 -20 92.68 -20 92 C-20.66 92 -21.32 92 -22 92 C-22 91.34 -22 90.68 -22 90 C-22.66 90 -23.32 90 -24 90 C-24 89.34 -24 88.68 -24 88 C-24.66 88 -25.32 88 -26 88 C-26 86.68 -26 85.36 -26 84 C-26.66 84 -27.32 84 -28 84 C-28 83.34 -28 82.68 -28 82 C-28.66 82 -29.32 82 -30 82 C-34.15002087 73.79647037 -34.78133987 66.09816261 -35 57 C-35.03996094 55.94167969 -35.07992188 54.88335937 -35.12109375 53.79296875 C-35.30069616 45.73198998 -34.56075093 37.68225279 -32 30 C-31.34 30 -30.68 30 -30 30 C-30 28.68 -30 27.36 -30 26 C-29.34 26 -28.68 26 -28 26 C-28 24.68 -28 23.36 -28 22 C-27.34 22 -26.68 22 -26 22 C-26 20.68 -26 19.36 -26 18 C-25.34 18 -24.68 18 -24 18 C-24 17.34 -24 16.68 -24 16 C-23.34 16 -22.68 16 -22 16 C-22 15.34 -22 14.68 -22 14 C-21.34 14 -20.68 14 -20 14 C-20 13.34 -20 12.68 -20 12 C-19.34 12 -18.68 12 -18 12 C-18 11.34 -18 10.68 -18 10 C-17.34 10 -16.68 10 -16 10 C-16 9.34 -16 8.68 -16 8 C-12.91190305 6.23537317 -11.76687864 6 -8 6 C-8 5.34 -8 4.68 -8 4 C-6.68 4 -5.36 4 -4 4 C-4 3.34 -4 2.68 -4 2 C-2.68 2 -1.36 2 0 2 C0 1.34 0 0.68 0 0 Z " fill="#FAF5FA" transform="translate(421,403)"/>
<path d="M0 0 C0.66 0.66 1.32 1.32 2 2 C1.319375 3.0828125 1.319375 3.0828125 0.625 4.1875 C-2.38620978 9.39920923 -3.36112369 13.83321618 -3.61889648 19.81768799 C-3.656566 20.56645808 -3.69423552 21.31522818 -3.73304653 22.08668828 C-4.08695012 29.69543797 -4.12696304 37.30119178 -4.09765625 44.91699219 C-4.09572941 46.4223526 -4.09426925 47.92771367 -4.0932312 49.43307495 C-4.09010644 52.63743072 -4.08389386 55.84175909 -4.07516479 59.04610443 C-4.06144749 64.135979 -4.05570749 69.22584507 -4.05102539 74.31573486 C-4.03906757 86.04157288 -4.01703798 97.76738761 -3.99479675 109.49320984 C-3.97450078 120.2442696 -3.9564571 130.99532126 -3.94658184 141.7463963 C-3.94246267 145.96718205 -3.93624642 150.18794148 -3.92483521 154.40871429 C-3.87866997 171.63157403 -3.88602338 188.8033784 -5 206 C-5.33 206 -5.66 206 -6 206 C-6.04675568 181.39979306 -6.08200634 156.7995928 -6.10362434 132.19935036 C-6.1139295 120.77660256 -6.12797531 109.3538824 -6.15087891 97.93115234 C-6.17083604 87.97315018 -6.18372197 78.01516804 -6.18817699 68.05714643 C-6.19078042 62.78624771 -6.19688384 57.51540625 -6.21146011 52.24452591 C-6.22508071 47.27877973 -6.22921359 42.31311416 -6.22621536 37.34735107 C-6.22676352 35.52935726 -6.23071419 33.71136063 -6.23841095 31.89338303 C-6.32855982 9.49283973 -6.32855982 9.49283973 -2 3 C-1.34 3 -0.68 3 0 3 C0 2.01 0 1.02 0 0 Z " fill="#F8F6FB" transform="translate(648,413)"/>
<path d="M0 0 C2 2 2 2 2.23046875 4.87109375 C2.21628906 6.04800781 2.20210938 7.22492187 2.1875 8.4375 C2.17589844 9.69433594 2.16429687 10.95117188 2.15234375 12.24609375 C2.01831199 15.54877379 1.68666055 18.72729667 1.25 22 C0.90352771 25.58546321 0.95137029 26.88284661 2.375 30.3125 C9.17324091 37.27260379 16.43630936 40.71258011 26 42 C27 43 27 43 27.0625 46.5625 C27.041875 47.696875 27.02125 48.83125 27 50 C25.85523193 50.02505615 24.71046387 50.0501123 23.53100586 50.07592773 C19.26120886 50.17049578 14.99155592 50.27059352 10.72192383 50.37231445 C8.87820825 50.41547728 7.03445748 50.45716451 5.19067383 50.49731445 C2.5319562 50.55547166 -0.12658735 50.61903219 -2.78515625 50.68359375 C-4.01057884 50.70866249 -4.01057884 50.70866249 -5.26075745 50.73423767 C-9.92166192 50.85337785 -14.39814399 51.24423054 -19 52 C-19 51.67 -19 51.34 -19 51 C-29.89882416 50.73253371 -29.89882416 50.73253371 -40.75 51.5 C-51.30336433 52.89766245 -61.56050129 51.7529593 -72 50 C-72 49.67 -72 49.34 -72 49 C-39.66 49 -7.32 49 26 49 C26 47.35 26 45.7 26 44 C24.72125 43.938125 23.4425 43.87625 22.125 43.8125 C12.96547874 42.7611713 5.79180811 38.03164471 0 31 C-1.31168797 28.37662406 -1.12953979 26.41124455 -1.1328125 23.4765625 C-1.13410156 22.373125 -1.13539063 21.2696875 -1.13671875 20.1328125 C-1.13285156 18.97523438 -1.12898438 17.81765625 -1.125 16.625 C-1.12886719 15.47515625 -1.13273437 14.3253125 -1.13671875 13.140625 C-1.13542969 12.03460937 -1.13414062 10.92859375 -1.1328125 9.7890625 C-1.13168457 8.77537598 -1.13055664 7.76168945 -1.12939453 6.71728516 C-1.01489256 4.31274366 -0.68919091 2.29616237 0 0 Z " fill="#D4D9EC" transform="translate(508,570)"/>
<path d="M0 0 C1.86328125 0.203125 1.86328125 0.203125 4 1 C5.23046875 3.109375 5.23046875 3.109375 6.1875 5.75 C6.51105469 6.61109375 6.83460938 7.4721875 7.16796875 8.359375 C8.63295414 13.00881219 9.12447382 17.23273626 9.12025452 22.10603333 C9.12162918 23.33295898 9.12300385 24.55988464 9.12442017 25.82398987 C9.12088152 27.17538477 9.11724672 28.52677942 9.11352539 29.87817383 C9.11324318 31.30746458 9.11340191 32.73675548 9.1139679 34.16604614 C9.11425456 38.0396062 9.10837888 41.91313523 9.10139394 45.78668809 C9.09513872 49.83725721 9.09455488 53.88782706 9.09336853 57.93840027 C9.09026161 65.60579753 9.08205683 73.27318051 9.07201904 80.94057149 C9.06083806 89.67087003 9.05534245 98.40116926 9.05032361 107.13147318 C9.03987369 125.08765688 9.02228662 143.04382729 9 161 C7.68 159.68 6.36 158.36 5 157 C5.495 156.01 5.495 156.01 6 155 C6.15522168 152.43659031 6.2518617 149.89710772 6.30541992 147.33105469 C6.32540606 146.53509132 6.34539219 145.73912796 6.36598396 144.91904449 C6.43066141 142.25341994 6.48734267 139.58770299 6.54296875 136.921875 C6.573826 135.53302219 6.573826 135.53302219 6.60530663 134.11611176 C7.07370991 112.89225302 7.25427474 91.66807604 7.29516602 70.43945312 C7.30418116 66.26287959 7.32548588 62.08662214 7.35668945 57.91015625 C7.39528554 52.73937983 7.41393765 47.5688872 7.41844749 42.39797211 C7.42325653 40.46691759 7.43470328 38.53586571 7.45348549 36.60489655 C7.57295773 23.57748703 7.29526381 11.34614023 0 0 Z " fill="#F1EDF8" transform="translate(625,413)"/>
<path d="M0 0 C3.59478807 3.32850747 6.22364768 6.98971331 9 11 C8.67 11.66 8.34 12.32 8 13 C7.38125 12.835 6.7625 12.67 6.125 12.5 C4.03936614 11.92365356 4.03936614 11.92365356 2 12 C2.01047363 13.01835937 2.02094727 14.03671875 2.03173828 15.0859375 C2.06817446 18.89530873 2.0909857 22.70466481 2.10986328 26.51416016 C2.11986737 28.15709023 2.13347494 29.80000274 2.15087891 31.44287109 C2.17537515 33.81612505 2.18653917 36.18914185 2.1953125 38.5625 C2.20563507 39.28679199 2.21595764 40.01108398 2.22659302 40.75732422 C2.2276826 45.80716915 1.38239063 50.14010767 0 55 C-1.62752231 54.74476126 -3.25203196 54.47025506 -4.875 54.1875 C-5.77992188 54.03667969 -6.68484375 53.88585937 -7.6171875 53.73046875 C-10 53 -10 53 -12 50 C-8.43476181 50.61118369 -5.33726069 51.62022499 -2 53 C-1.98969254 52.4097554 -1.97938507 51.8195108 -1.96876526 51.21138 C-1.86050894 45.06309358 -1.74592674 38.91494804 -1.62768555 32.7668457 C-1.58439801 30.4729304 -1.54271858 28.17898417 -1.50268555 25.88500977 C-1.44483334 22.58600546 -1.38118178 19.28715599 -1.31640625 15.98828125 C-1.29969376 14.96414627 -1.28298126 13.94001129 -1.26576233 12.88484192 C-1.24581711 11.92422348 -1.22587189 10.96360504 -1.20532227 9.97387695 C-1.18977798 9.13226517 -1.1742337 8.29065338 -1.15821838 7.42353821 C-0.99199385 4.87736443 -0.55374448 2.48830329 0 0 Z " fill="#FBF7FC" transform="translate(506,447)"/>
<path d="M0 0 C0.33 0.33 0.66 0.66 1 1 C2.92890852 1.09996299 4.86147278 1.13080962 6.79296875 1.1328125 C8.57477539 1.13474609 8.57477539 1.13474609 10.39257812 1.13671875 C11.64490234 1.13285156 12.89722656 1.12898438 14.1875 1.125 C16.03698242 1.13080078 16.03698242 1.13080078 17.92382812 1.13671875 C19.11814453 1.13542969 20.31246094 1.13414062 21.54296875 1.1328125 C22.63633545 1.13168457 23.72970215 1.13055664 24.85620117 1.12939453 C27.98445173 1.00063995 30.91952199 0.5378318 34 0 C36.33302989 -0.03762951 38.66713319 -0.04665734 41 0 C42.35439668 2.70879335 42.06501451 5.00933268 42 8 C38.42169011 9.63579881 35.88695426 10 32 10 C29.26225382 10.92745649 29.26225382 10.92745649 27 12 C28 9 28 9 29.765625 7.8203125 C32.25718223 6.90557995 34.10616836 6.79724025 36.75 6.875 C37.54921875 6.89304687 38.3484375 6.91109375 39.171875 6.9296875 C39.77515625 6.95289063 40.3784375 6.97609375 41 7 C41 5.68 41 4.36 41 3 C23.84 3 6.68 3 -11 3 C-11 4.32 -11 5.64 -11 7 C-7.37 7 -3.74 7 0 7 C0.66 8.32 1.32 9.64 2 11 C0.41632253 10.85795259 -1.16693318 10.71119847 -2.75 10.5625 C-3.63171875 10.48128906 -4.5134375 10.40007812 -5.421875 10.31640625 C-7.69350452 10.03761535 -9.79851823 9.61209423 -12 9 C-12.85039667 6.61888932 -13.07366994 5.28649422 -12.4375 2.8125 C-11 1 -11 1 -8.1875 0.25 C-5.42601678 0.03341308 -2.76523394 -0.15801337 0 0 Z " fill="#F5DFF1" transform="translate(623,402)"/>
<path d="M0 0 C0.66 0.33 1.32 0.66 2 1 C0.38405168 3.04119788 -1.2856382 5.04072937 -3 7 C-3.66 7 -4.32 7 -5 7 C-5.2256665 7.55381348 -5.45133301 8.10762695 -5.68383789 8.67822266 C-7.39515457 11.6970729 -9.56488864 13.73444581 -12.05859375 16.1484375 C-13.09079142 17.1578999 -14.1226811 18.16767731 -15.15429688 19.17773438 C-15.69175537 19.70069092 -16.22921387 20.22364746 -16.78295898 20.76245117 C-25.91151192 29.65932178 -34.63758403 38.54536932 -42 49 C-42.78125 47.359375 -42.78125 47.359375 -43 45 C-41.58012989 42.87019483 -40.20434777 41.13192617 -38.5 39.25 C-38.01168701 38.6928833 -37.52337402 38.1357666 -37.02026367 37.56176758 C-26.16656149 25.28789178 -15.00526969 13.03388139 -2.56640625 2.34765625 C-1.68751602 1.59150381 -0.81982149 0.81982149 0 0 Z " fill="#58EEF2" transform="translate(327,292)"/>
<path d="M0 0 C4.29041549 3.78554606 7.11843111 8.48463354 10.20703125 13.2421875 C10.80535767 14.15499481 11.40368408 15.06780212 12.0201416 16.00827026 C13.2964221 17.95613708 14.57062454 19.90536681 15.84292603 21.85583496 C19.1147347 26.87119894 22.40146867 31.87676019 25.6875 36.8828125 C26.32665848 37.85726318 26.96581696 38.83171387 27.62434387 39.83569336 C34.28588562 49.98081641 41.08975349 60.02251109 48 70 C47.67 70.66 47.34 71.32 47 72 C43.23652612 67.49661985 40.00286895 62.68791243 36.75 57.8125 C35.91855469 56.58370117 35.91855469 56.58370117 35.0703125 55.33007812 C34.28527344 54.15541992 34.28527344 54.15541992 33.484375 52.95703125 C33.00709961 52.24522705 32.52982422 51.53342285 32.03808594 50.80004883 C31 49 31 49 31 47 C30.34 47 29.68 47 29 47 C25 40.25 25 40.25 25 38 C24.34 38 23.68 38 23 38 C21.5625 35.8125 21.5625 35.8125 20 33 C17.2166422 28.20446953 14.13600676 23.61213195 11.0625 19 C10.53720703 18.2059375 10.01191406 17.411875 9.47070312 16.59375 C7.29714103 13.32932633 5.13440913 10.16637915 2.66796875 7.11328125 C0.78393724 4.72625303 0.34186637 2.99133074 0 0 Z " fill="#F0E7F4" transform="translate(515,460)"/>
<path d="M0 0 C0.33 0 0.66 0 1 0 C1.02505615 0.55349121 1.0501123 1.10698242 1.07592773 1.67724609 C1.6342249 14.73291013 1.6342249 14.73291013 2.80200195 27.7434082 C2.98916614 29.876526 2.99622706 31.91591811 2.94140625 34.0546875 C2.91585733 39.58631165 3.62367764 44.96512798 4.375 50.4375 C4.50132812 51.41009766 4.62765625 52.38269531 4.7578125 53.38476562 C5.49488094 58.90172288 6.41082122 64.33087693 7.60742188 69.76733398 C8.2137115 73.21541772 8.12934299 76.50773935 8 80 C6.35369144 77.02978497 5.56294178 74.40496681 5 71.0625 C4.8359668 70.09634766 4.67193359 69.13019531 4.50292969 68.13476562 C4.33696289 67.10029297 4.17099609 66.06582031 4 65 C3.82629883 63.91912109 3.65259766 62.83824219 3.47363281 61.72460938 C0.23215725 41.05944249 -0.25286284 20.87479988 0 0 Z " fill="#A1FDF7" transform="translate(225,497)"/>
<path d="M0 0 C0.95003906 0.00902344 1.90007812 0.01804687 2.87890625 0.02734375 C3.72324219 0.03894531 4.56757813 0.05054688 5.4375 0.0625 C6.4275 0.0625 7.4175 0.0625 8.4375 0.0625 C9.7575 0.0625 11.0775 0.0625 12.4375 0.0625 C12.4375 0.7225 12.4375 1.3825 12.4375 2.0625 C13.7575 2.0625 15.0775 2.0625 16.4375 2.0625 C16.9325 4.0425 16.9325 4.0425 17.4375 6.0625 C18.0975 6.0625 18.7575 6.0625 19.4375 6.0625 C19.4375 6.7225 19.4375 7.3825 19.4375 8.0625 C20.0975 8.0625 20.7575 8.0625 21.4375 8.0625 C21.9325 11.5275 21.9325 11.5275 22.4375 15.0625 C21.4475 14.7325 20.4575 14.4025 19.4375 14.0625 C17.64519447 10.40895412 16.425338 7.01385202 15.4375 3.0625 C3.5575 3.0625 -8.3225 3.0625 -20.5625 3.0625 C-19.9025 5.0425 -19.2425 7.0225 -18.5625 9.0625 C-19.6875 10.5625 -19.6875 10.5625 -21.5625 12.0625 C-24.75 12.25 -24.75 12.25 -27.5625 12.0625 C-24.5625 10.0625 -24.5625 10.0625 -22.5625 9.0625 C-22.8925 6.7525 -23.2225 4.4425 -23.5625 2.0625 C-22.59828125 2.00191406 -21.6340625 1.94132812 -20.640625 1.87890625 C-19.37734375 1.79511719 -18.1140625 1.71132813 -16.8125 1.625 C-15.55953125 1.54378906 -14.3065625 1.46257812 -13.015625 1.37890625 C-9.76246935 1.17086877 -9.76246935 1.17086877 -7.45703125 0.53125 C-4.93805731 -0.09200128 -2.59062387 -0.03172192 0 0 Z " fill="#F7E8F3" transform="translate(506.5625,401.9375)"/>
<path d="M0 0 C3.62528568 -0.20140476 5.86501708 0.14223235 9 2 C9 2.66 9 3.32 9 4 C9.66 4 10.32 4 11 4 C11 4.66 11 5.32 11 6 C11.66 6 12.32 6 13 6 C13 6.66 13 7.32 13 8 C13.66 8 14.32 8 15 8 C15 8.66 15 9.32 15 10 C15.66 10 16.32 10 17 10 C17 10.66 17 11.32 17 12 C17.66 12 18.32 12 19 12 C19 12.66 19 13.32 19 14 C19.66 14 20.32 14 21 14 C21 14.66 21 15.32 21 16 C21.66 16 22.32 16 23 16 C24.76462683 19.08809695 25 20.23312136 25 24 C25.66 24 26.32 24 27 24 C27 25.98 27 27.96 27 30 C27.66 30 28.32 30 29 30 C29.71167986 35.07071901 30.10662326 39.88208358 30 45 C29.67 45 29.34 45 29 45 C28.78085937 43.98421875 28.56171875 42.9684375 28.3359375 41.921875 C24.77460221 26.16205344 19.38001495 13.73629077 5.5625 4.5625 C4.51191406 3.90378906 3.46132813 3.24507812 2.37890625 2.56640625 C1.59386719 2.04949219 0.80882812 1.53257812 0 1 C0 0.67 0 0.34 0 0 Z " fill="#F9F6FA" transform="translate(502,509)"/>
<path d="M0 0 C2.57449533 2.57449533 3.52631211 5.49963723 4.875 8.8125 C10.21488866 21.4919705 17.21249856 33.6625874 25 45 C24.67 45.66 24.34 46.32 24 47 C20.46413986 43.82679218 18.41421969 41.83256305 18 37 C17.34 37 16.68 37 16 37 C13.15949746 31.73619373 13.15949746 31.73619373 12.06396484 29.68457031 C10.34518406 26.47011558 8.59708369 23.27851096 6.7890625 20.11328125 C3.03433259 13.45701676 0 7.8407289 0 0 Z " fill="#7CF5F2" transform="translate(272,612)"/>
<path d="M0 0 C2.02907167 3.3146667 2.12742133 5.4315979 1.625 9.25 C1.45871094 10.58804688 1.45871094 10.58804688 1.2890625 11.953125 C1.14597656 12.96632813 1.14597656 12.96632813 1 14 C0.34 14 -0.32 14 -1 14 C-1 15.98 -1 17.96 -1 20 C-1.66 20 -2.32 20 -3 20 C-3 21.32 -3 22.64 -3 24 C-3.66 24 -4.32 24 -5 24 C-5 25.32 -5 26.64 -5 28 C-5.66 28 -6.32 28 -7 28 C-7 29.32 -7 30.64 -7 32 C-9.475 32.495 -9.475 32.495 -12 33 C-14.35033491 28.44622611 -14.4457809 24.01762683 -14 19 C-13.67 18.67 -13.34 18.34 -13 18 C-12.63239269 15.67182036 -12.29758419 13.3381615 -12 11 C-11.67 11 -11.34 11 -11 11 C-11 17.27 -11 23.54 -11 30 C-4.91401023 20.73269739 -1.03341708 11.10923362 0 0 Z " fill="#F7F7F9" transform="translate(530,563)"/>
<path d="M0 0 C0.226875 0.556875 0.45375 1.11375 0.6875 1.6875 C1.95495638 4.20340563 1.95495638 4.20340563 4.5625 6.3125 C7.51213586 9.56466262 7.74654656 11.69129144 8 16 C7.4225 15.2575 6.845 14.515 6.25 13.75 C3.8217225 10.68905088 3.8217225 10.68905088 0 7 C-0.33 18.22 -0.66 29.44 -1 41 C-1.33 41 -1.66 41 -2 41 C-2.31021595 36.05249221 -2.61319845 31.10461521 -2.90942383 26.15625 C-3.01126545 24.47220862 -3.11509852 22.78828646 -3.22094727 21.10449219 C-3.37256606 18.6871334 -3.5170668 16.26943925 -3.66015625 13.8515625 C-3.70906509 13.0963028 -3.75797394 12.34104309 -3.80836487 11.56289673 C-4.11387171 6.22774341 -4.11387171 6.22774341 -3 4 C-2.34 4 -1.68 4 -1 4 C-0.67 2.68 -0.34 1.36 0 0 Z " fill="#EBE9F3" transform="translate(495,541)"/>
<path d="M0 0 C6.68722395 0.59758171 12.64641773 2.80145926 18.9375 5.0625 C20.53561523 5.62807617 20.53561523 5.62807617 22.16601562 6.20507812 C24.77946849 7.13092017 27.39064121 8.06269463 30 9 C30 9.33 30 9.66 30 10 C24.72 10 19.44 10 14 10 C14 9.34 14 8.68 14 8 C12.02 8 10.04 8 8 8 C8 7.34 8 6.68 8 6 C7.34 6 6.68 6 6 6 C6 5.34 6 4.68 6 4 C5.34 4 4.68 4 4 4 C4 3.34 4 2.68 4 2 C2.68 2 1.36 2 0 2 C0 1.34 0 0.68 0 0 Z " fill="#FCFAFC" transform="translate(431,511)"/>
<path d="M0 0 C0.66 0.66 1.32 1.32 2 2 C1.319375 3.0828125 1.319375 3.0828125 0.625 4.1875 C-2.33510745 9.31076289 -3.36062288 13.67513992 -3.62109375 19.55859375 C-3.65883408 20.29581161 -3.6965744 21.03302948 -3.73545837 21.79258728 C-4.15482376 30.87919356 -4.1087409 39.96874669 -4.0625 49.0625 C-4.05746611 50.8157539 -4.0529066 52.56900924 -4.04882812 54.32226562 C-4.03799243 58.54821347 -4.02083624 62.77409012 -4 67 C-4.66 67 -5.32 67 -6 67 C-6.05098549 59.91995339 -6.08585287 52.83995468 -6.10986328 45.75976562 C-6.11987994 43.35447419 -6.13349709 40.9491948 -6.15087891 38.54394531 C-6.1753184 35.07353733 -6.18652679 31.60329128 -6.1953125 28.1328125 C-6.20563507 27.06886261 -6.21595764 26.00491272 -6.22659302 24.90872192 C-6.22889757 9.34334635 -6.22889757 9.34334635 -2 3 C-1.34 3 -0.68 3 0 3 C0 2.01 0 1.02 0 0 Z " fill="#FEFCFE" transform="translate(648,413)"/>
<path d="M0 0 C2.120853 2.120853 2.56873422 3.23484262 3.47265625 6.02734375 C3.73240234 6.81947266 3.99214844 7.61160156 4.25976562 8.42773438 C4.52466797 9.25595703 4.78957031 10.08417969 5.0625 10.9375 C5.33126953 11.76185547 5.60003906 12.58621094 5.87695312 13.43554688 C6.37650546 14.96908533 6.87359157 16.50343088 7.36743164 18.03881836 C7.90185821 19.69572635 8.44945882 21.34837647 9 23 C8.67 23.66 8.34 24.32 8 25 C9.98 25 11.96 25 14 25 C14 36.55 14 48.1 14 60 C13.34 59.67 12.68 59.34 12 59 C11.89052367 48.27132003 12.03711992 37.6948466 13 27 C11.35 27.33 9.7 27.66 8 28 C7.32815382 25.89748139 6.66269032 23.79292237 6 21.6875 C5.443125 19.92986328 5.443125 19.92986328 4.875 18.13671875 C4 15 4 15 4 12 C3.34 11.67 2.68 11.34 2 11 C0.06669424 7.24079436 -0.19491883 4.19075475 0 0 Z " fill="#DCBFE6" transform="translate(480,437)"/>
<path d="M0 0 C1 3 1 3 0.3203125 4.91015625 C-6.64802632 17.4577206 -14.93276412 24.79301954 -28.6875 28.8125 C-35.69168833 30.41345733 -42.85146107 30.68207868 -50 30 C-50.99 29.34 -51.98 28.68 -53 28 C-51.61941406 28.05220703 -51.61941406 28.05220703 -50.2109375 28.10546875 C-35.3545353 28.42317185 -21.77743239 26.50922986 -10.1328125 16.375 C-5.73461314 11.63497167 -2.91638969 5.71901949 0 0 Z " fill="#E4E6F1" transform="translate(496,584)"/>
<path d="M0 0 C6.34826259 1.17965799 12.00664338 3.0097745 17.875 5.6875 C18.65294922 6.0383667 19.43089844 6.3892334 20.23242188 6.75073242 C36.02036399 14.03054598 36.02036399 14.03054598 40 20 C38.35 20 36.7 20 35 20 C34.505 18.02 34.505 18.02 34 16 C33.236875 15.855625 32.47375 15.71125 31.6875 15.5625 C29 15 29 15 26 14 C26 13.34 26 12.68 26 12 C25.34 12 24.68 12 24 12 C24 11.34 24 10.68 24 10 C22.68 10 21.36 10 20 10 C20 9.34 20 8.68 20 8 C18.02 8 16.04 8 14 8 C14 7.34 14 6.68 14 6 C12.989375 5.896875 11.97875 5.79375 10.9375 5.6875 C6.78781792 4.96295233 3.78643737 3.77730734 0 2 C0 1.34 0 0.68 0 0 Z " fill="#F8F5F9" transform="translate(461,521)"/>
<path d="M0 0 C7.83098592 1.95774648 7.83098592 1.95774648 11 5 C11 5.66 11 6.32 11 7 C11.70769531 7.09796875 12.41539062 7.1959375 13.14453125 7.296875 C16.4570215 8.11253607 18.78322012 9.46633012 21.6875 11.25 C26.39527476 14.09330951 31.12856314 16.59092812 36.13671875 18.859375 C38 20 38 20 39 23 C33.3448569 21.39740244 28.47979027 18.71601453 23.375 15.875 C22.49287842 15.38652588 21.61075684 14.89805176 20.7019043 14.39477539 C1.95025682 3.90051365 1.95025682 3.90051365 0 0 Z " fill="#86E4EE" transform="translate(350,748)"/>
<path d="M0 0 C3 1 3 1 4.796875 4.17578125 C5.45684439 5.55043688 6.10733582 6.92966941 6.75 8.3125 C9.78616491 14.64850424 13.05430622 20.6637768 16.75 26.64453125 C18 29 18 29 18 32 C19.485 32.495 19.485 32.495 21 33 C21.33 34.98 21.66 36.96 22 39 C19.00071239 36.20919303 16.93912101 33.49972322 14.94140625 29.9296875 C14.39033203 28.95 13.83925781 27.9703125 13.27148438 26.9609375 C12.70751953 25.94257812 12.14355469 24.92421875 11.5625 23.875 C11.00240234 22.87984375 10.44230469 21.8846875 9.86523438 20.859375 C0 3.22397353 0 3.22397353 0 0 Z " fill="#7BF9F1" transform="translate(251,631)"/>
<path d="M0 0 C1 2 1 2 0 5.75 C-1.96933235 11.4003274 -4.73715588 16.65704307 -7.4765625 21.9609375 C-9.05701598 24.93365011 -9.05701598 24.93365011 -10 28 C-12.0625 29.6875 -12.0625 29.6875 -14 31 C-13.37258426 26.97531259 -12.08369723 23.73790196 -10.3125 20.078125 C-9.77882812 18.97082031 -9.24515625 17.86351562 -8.6953125 16.72265625 C-8.13585937 15.57667969 -7.57640625 14.43070312 -7 13.25 C-6.44054687 12.08855469 -5.88109375 10.92710937 -5.3046875 9.73046875 C-1.14987245 1.14987245 -1.14987245 1.14987245 0 0 Z " fill="#91F9F7" transform="translate(260,374)"/>
<path d="M0 0 C1.79377289 3.40399692 3.18330428 6.90997412 4.5625 10.5 C4.99691406 11.6240625 5.43132812 12.748125 5.87890625 13.90625 C6.74505204 16.29645024 7.4177335 18.53838551 8 21 C8.33257812 22.093125 8.66515625 23.18625 9.0078125 24.3125 C9.56082031 26.1378125 9.56082031 26.1378125 10.125 28 C10.49882812 29.216875 10.87265625 30.43375 11.2578125 31.6875 C11.97556939 34.89096231 11.9130226 36.00391511 11 39 C9.75290291 35.28362001 8.50786582 31.56655665 7.26464844 27.84887695 C6.63582893 25.96985867 6.00542824 24.09136977 5.375 22.21289062 C4.97539062 21.01728516 4.57578125 19.82167969 4.1640625 18.58984375 C3.61419678 16.94810181 3.61419678 16.94810181 3.05322266 15.27319336 C-0.29500638 4.86760533 -0.29500638 4.86760533 0 0 Z " fill="#9FFCF5" transform="translate(233,577)"/>
<path d="M0 0 C0.33 0 0.66 0 1 0 C1.15557373 0.65371582 1.31114746 1.30743164 1.47143555 1.98095703 C5.51830672 18.98607738 5.51830672 18.98607738 11.21484375 35.48828125 C12 38 12 38 11 41 C7.99805936 38.52194374 7.3730054 36.38050948 6.5625 32.625 C5.54885714 28.16818931 4.33280125 23.89380118 2.875 19.5625 C0.8157291 13.07029479 0.2220412 6.78335879 0 0 Z " fill="#A8F8F4" transform="translate(257,563)"/>
<path d="M0 0 C1.10305575 3.30916726 0.92750991 3.99056181 -0.07421875 7.18359375 C-0.32800293 8.01995361 -0.58178711 8.85631348 -0.84326172 9.71801758 C-1.12186035 10.61544678 -1.40045898 11.51287598 -1.6875 12.4375 C-4.80755531 22.85134486 -7.04851163 33.31273136 -9 44 C-9.33 44 -9.66 44 -10 44 C-10.36875458 32.93736246 -8.13324276 22.99073698 -5 12.4375 C-4.60820557 11.11528442 -4.60820557 11.11528442 -4.20849609 9.76635742 C-3.07978799 6.07679005 -2.16104768 3.24157152 0 0 Z " fill="#A9F7F2" transform="translate(265,428)"/>
<path d="M0 0 C0.33 0 0.66 0 1 0 C1.01417969 1.22074219 1.02835937 2.44148438 1.04296875 3.69921875 C1.29942013 14.23840482 2.47059917 22.37678702 7 32 C7.67647271 33.66271071 8.34645625 35.32814391 9 37 C8.01 37 7.02 37 6 37 C6 36.34 6 35.68 6 35 C5.34 35 4.68 35 4 35 C0.07923168 27.18719503 -0.51161759 20.52850499 -0.25 11.875 C-0.23195313 10.72773438 -0.21390625 9.58046875 -0.1953125 8.3984375 C-0.14863947 5.59805576 -0.08318498 2.79949437 0 0 Z " fill="#F0E0F2" transform="translate(387,450)"/>
<path d="M0 0 C0.66 0 1.32 0 2 0 C0.62808028 2.91925587 -0.95205669 5.45116536 -2.86328125 8.046875 C-3.42080078 8.81 -3.97832031 9.573125 -4.55273438 10.359375 C-5.13345703 11.14828125 -5.71417969 11.9371875 -6.3125 12.75 C-10.44794673 18.37008615 -14.39709426 24.0214507 -18 30 C-19.14306641 26.29492188 -19.14306641 26.29492188 -17.85546875 23.640625 C-17.30503906 22.85171875 -16.75460937 22.0628125 -16.1875 21.25 C-15.64480469 20.45078125 -15.10210937 19.6515625 -14.54296875 18.828125 C-14.03378906 18.22484375 -13.52460938 17.6215625 -13 17 C-12.34 17 -11.68 17 -11 17 C-11 16.01 -11 15.02 -11 14 C-10.34 14 -9.68 14 -9 14 C-8.67 12.68 -8.34 11.36 -8 10 C-7.34 10 -6.68 10 -6 10 C-5.896875 9.4225 -5.79375 8.845 -5.6875 8.25 C-4.89103535 5.64338842 -3.80934723 4.0264689 -2 2 C-1.34 2 -0.68 2 0 2 C0 1.34 0 0.68 0 0 Z " fill="#94F3F3" transform="translate(308,348)"/>
<path d="M0 0 C0.33 0 0.66 0 1 0 C1 16.5 1 33 1 50 C-2.3 49.34 -5.6 48.68 -9 48 C-9.66 47.01 -10.32 46.02 -11 45 C-7.30973516 45.63261683 -4.57274103 46.57090359 -1 48 C-0.67 32.16 -0.34 16.32 0 0 Z " fill="#CCAAD9" transform="translate(505,452)"/>
<path d="M0 0 C6.03518337 4.98558626 11.50757503 10.42810265 17 16 C18.66550644 17.66782609 20.33184987 19.33481811 22 21 C15.7277394 17.98002268 11.07066227 14.41038168 6.1875 9.5 C5.2912793 8.62794922 5.2912793 8.62794922 4.37695312 7.73828125 C3.81298828 7.17496094 3.24902344 6.61164062 2.66796875 6.03125 C2.15516357 5.52142578 1.6423584 5.01160156 1.11401367 4.48632812 C0 3 0 3 0 0 Z " fill="#7EEDF0" transform="translate(318,686)"/>
<path d="M0 0 C3.80013925 1.49291185 5.74918216 3.62377323 8 7 C8 8.32 8 9.64 8 11 C8.99 11.33 9.98 11.66 11 12 C14.16170037 15.16170037 15.29678172 17.66348727 16 22 C11.87418756 18.10046612 8.52032902 13.90014581 5.1875 9.3125 C4.68541016 8.63638672 4.18332031 7.96027344 3.66601562 7.26367188 C0 2.25095663 0 2.25095663 0 0 Z " fill="#8CF6F0" transform="translate(273,670)"/>
<path d="M0 0 C3.42754467 0.58110671 5.04538661 1.68553624 7.453125 4.16015625 C8.071875 4.78857422 8.690625 5.41699219 9.328125 6.06445312 C9.96234375 6.72380859 10.5965625 7.38316406 11.25 8.0625 C11.8996875 8.72572266 12.549375 9.38894531 13.21875 10.07226562 C14.8194676 11.70829317 16.41276193 13.35090912 18 15 C17.67 15.99 17.34 16.98 17 18 C14.16266225 15.19151503 11.33081251 12.37756077 8.5 9.5625 C7.68917969 8.76005859 6.87835938 7.95761719 6.04296875 7.13085938 C5.27597656 6.36708984 4.50898438 5.60332031 3.71875 4.81640625 C3.00654297 4.10943604 2.29433594 3.40246582 1.56054688 2.67407227 C0 1 0 1 0 0 Z " fill="#7DEDEE" transform="translate(301,706)"/>
<path d="M0 0 C0.33 0 0.66 0 1 0 C1 6.27 1 12.54 1 19 C1.99 18.01 2.98 17.02 4 16 C4.33 17.65 4.66 19.3 5 21 C3.35 21.33 1.7 21.66 0 22 C-2.35033491 17.44622611 -2.4457809 13.01762683 -2 8 C-1.67 7.67 -1.34 7.34 -1 7 C-0.63239269 4.67182036 -0.29758419 2.3381615 0 0 Z " fill="#E2E0EF" transform="translate(518,574)"/>
<path d="M0 0 C9.34389868 -0.50431837 21.35033432 -0.96270424 28.86328125 5.63671875 C29.23839844 6.08660156 29.61351562 6.53648437 30 7 C27.26667907 6.51764925 24.75137335 5.91352117 22.125 5 C18.75587712 3.92188068 15.49930553 3.47106036 12 3 C11.34 2.67 10.68 2.34 10 2 C8.29636178 1.77377919 6.58671299 1.59111527 4.875 1.4375 C3.96492188 1.35371094 3.05484375 1.26992188 2.1171875 1.18359375 C1.41851562 1.12300781 0.71984375 1.06242187 0 1 C0 0.67 0 0.34 0 0 Z " fill="#F6E6F3" transform="translate(434,409)"/>
<path d="M0 0 C3.70511226 0.66532343 7.17226753 1.64627195 10.73828125 2.84765625 C11.80498047 3.20537109 12.87167969 3.56308594 13.97070312 3.93164062 C15.62489258 4.49141602 15.62489258 4.49141602 17.3125 5.0625 C18.43462891 5.43955078 19.55675781 5.81660156 20.71289062 6.20507812 C23.47618351 7.13401488 26.23850178 8.06574442 29 9 C29 9.33 29 9.66 29 10 C20.12859759 9.27580388 9.80997811 7.39804323 2 3 C2 2.34 2 1.68 2 1 C1.34 0.67 0.68 0.34 0 0 Z " fill="#B4E8F5" transform="translate(412,752)"/>
<path d="M0 0 C0.86625 0.2784375 0.86625 0.2784375 1.75 0.5625 C4.20692525 1.04023546 5.64397534 0.75729364 8 0 C8 0.66 8 1.32 8 2 C9.32 2 10.64 2 12 2 C12.33 3.32 12.66 4.64 13 6 C13.66 6 14.32 6 15 6 C15 6.66 15 7.32 15 8 C15.66 8 16.32 8 17 8 C17.33 10.31 17.66 12.62 18 15 C17.01 14.67 16.02 14.34 15 14 C13.20769447 10.34645412 11.987838 6.95135202 11 3 C6.71 3 2.42 3 -2 3 C-1.34 2.01 -0.68 1.02 0 0 Z " fill="#F8E9F5" transform="translate(511,402)"/>
<path d="M0 0 C-0.639375 0.309375 -1.27875 0.61875 -1.9375 0.9375 C-3.93610821 1.8345163 -3.93610821 1.8345163 -5 3 C-10.52941176 3.23529412 -10.52941176 3.23529412 -13 2 C-13 2.66 -13 3.32 -13 4 C-17.29 4 -21.58 4 -26 4 C-26 3.67 -26 3.34 -26 3 C-8.14350797 -0.44419134 -8.14350797 -0.44419134 0 0 Z " fill="#9FD7EF" transform="translate(482,227)"/>
<path d="M0 0 C-5.33870958 2.96594977 -9.96642934 4.62047014 -15.99609375 5.60546875 C-17.99056656 5.80483507 -17.99056656 5.80483507 -19 7 C-20.99958364 7.04080783 -23.00045254 7.04254356 -25 7 C-21.06059243 4.37372829 -16.99044148 3.23035856 -12.5 1.8125 C-11.19869141 1.38420898 -11.19869141 1.38420898 -9.87109375 0.94726562 C-9.03707031 0.68236328 -8.20304687 0.41746094 -7.34375 0.14453125 C-6.58255859 -0.09934326 -5.82136719 -0.34321777 -5.03710938 -0.59448242 C-3 -1 -3 -1 0 0 Z " fill="#BEECF6" transform="translate(438,236)"/>
<path d="M0 0 C2.120853 2.120853 2.56873422 3.23484262 3.47265625 6.02734375 C3.73240234 6.81947266 3.99214844 7.61160156 4.25976562 8.42773438 C4.52466797 9.25595703 4.78957031 10.08417969 5.0625 10.9375 C5.33126953 11.76185547 5.60003906 12.58621094 5.87695312 13.43554688 C6.37650546 14.96908533 6.87359157 16.50343088 7.36743164 18.03881836 C7.90185821 19.69572635 8.44945882 21.34837647 9 23 C8.34 23.99 7.68 24.98 7 26 C6.49528803 24.23050388 5.99639315 22.45934777 5.5 20.6875 C5.2215625 19.70136719 4.943125 18.71523438 4.65625 17.69921875 C4 15 4 15 4 12 C3.34 11.67 2.68 11.34 2 11 C0.06669424 7.24079436 -0.19491883 4.19075475 0 0 Z " fill="#F3E1F1" transform="translate(480,437)"/>
<path d="M0 0 C3.9813236 1.32710787 4.33187507 2.98751373 6.15625 6.58007812 C6.5171875 7.31677734 6.878125 8.05347656 7.25 8.8125 C7.81460937 9.90014648 7.81460937 9.90014648 8.390625 11.00976562 C8.74125 11.71423828 9.091875 12.41871094 9.453125 13.14453125 C9.93507324 14.10903198 9.93507324 14.10903198 10.42675781 15.09301758 C11.12470442 17.41484933 10.76842067 18.73466818 10 21 C8.32666842 17.87852455 6.66248284 14.75226502 5 11.625 C4.52304688 10.73554687 4.04609375 9.84609375 3.5546875 8.9296875 C3.10351562 8.07890625 2.65234375 7.228125 2.1875 6.3515625 C1.76855469 5.56604004 1.34960938 4.78051758 0.91796875 3.97119141 C0 2 0 2 0 0 Z " fill="#98FAF3" transform="translate(251,631)"/>
<path d="M0 0 C2 2 2 2 2.1953125 5.2578125 C2.17210937 6.53398438 2.14890625 7.81015625 2.125 9.125 C2.10695313 10.40632812 2.08890625 11.68765625 2.0703125 13.0078125 C2.04710937 13.99523437 2.02390625 14.98265625 2 16 C1.01 16.33 0.02 16.66 -1 17 C-1.02709444 14.91673869 -1.04643873 12.83337559 -1.0625 10.75 C-1.07410156 9.58984375 -1.08570313 8.4296875 -1.09765625 7.234375 C-1.01782092 4.59022872 -0.78643778 2.50173909 0 0 Z " fill="#9F97D2" transform="translate(508,570)"/>
<path d="M0 0 C0.97582031 0.00902344 1.95164062 0.01804687 2.95703125 0.02734375 C3.69308594 0.03894531 4.42914063 0.05054688 5.1875 0.0625 C5.5175 1.0525 5.8475 2.0425 6.1875 3.0625 C0.5775 3.0625 -5.0325 3.0625 -10.8125 3.0625 C-10.8125 2.4025 -10.8125 1.7425 -10.8125 1.0625 C-7.13862505 0.20951624 -3.7677607 -0.04539471 0 0 Z " fill="#FBEFF8" transform="translate(443.8125,399.9375)"/>
<path d="M0 0 C4.34712371 1.49156389 6.07997807 4.73695572 8.3125 8.5 C8.8703418 9.39138672 8.8703418 9.39138672 9.43945312 10.30078125 C10.36406331 11.82630197 11.19054693 13.4103764 12 15 C11.67 15.66 11.34 16.32 11 17 C7.46413986 13.82679218 5.41421969 11.83256305 5 7 C4.34 7 3.68 7 3 7 C0 2.61538462 0 2.61538462 0 0 Z " fill="#7BF4F1" transform="translate(285,642)"/>
<path d="M0 0 C1.86328125 0.203125 1.86328125 0.203125 4 1 C5.23046875 3.109375 5.23046875 3.109375 6.1875 5.75 C6.51105469 6.61109375 6.83460938 7.4721875 7.16796875 8.359375 C8.74112211 13.35210584 9.10271936 17.76131246 9 23 C6.44165016 18.44045207 5.42396707 13.43080652 4.09765625 8.41015625 C3.07231067 5.22465199 1.84677093 2.77278712 0 0 Z " fill="#F2DBF2" transform="translate(625,413)"/>
<path d="M0 0 C0.99 1.485 0.99 1.485 2 3 C-0.60607392 2.38221953 -3.20965697 1.75612789 -5.8125 1.125 C-6.55048828 0.95097656 -7.28847656 0.77695312 -8.04882812 0.59765625 C-11.49717037 -0.24492511 -14.01928362 -1.01285575 -17 -3 C-10.92323161 -4.9708438 -5.49187106 -2.76388282 0 0 Z " fill="#F3D4ED" transform="translate(468,406)"/>
<path d="M0 0 C0.66 0.33 1.32 0.66 2 1 C-0.28304785 3.42163542 -2.70531967 5.35175667 -5.4375 7.25 C-6.58025391 8.06210937 -6.58025391 8.06210937 -7.74609375 8.890625 C-10 10 -10 10 -12.28515625 9.671875 C-12.85105469 9.45015625 -13.41695313 9.2284375 -14 9 C-12.41906946 7.87162591 -10.83515284 6.74743482 -9.25 5.625 C-8.36828125 4.99851562 -7.4865625 4.37203125 -6.578125 3.7265625 C-4.4108392 2.27513777 -2.42356585 0.9588891 0 0 Z " fill="#83E8F2" transform="translate(367,264)"/>
<path d="M0 0 C7.44044435 0.91637826 12.96774452 2.47148729 19 7 C15.038442 8.32051933 13.74671852 7.25678816 10 5.5625 C5.66358384 3.54154636 5.66358384 3.54154636 1 3 C0.67 2.01 0.34 1.02 0 0 Z " fill="#EDDBF0" transform="translate(429,480)"/>
<path d="M0 0 C0.66 0.33 1.32 0.66 2 1 C0.38405168 3.04119788 -1.2856382 5.04072937 -3 7 C-3.66 7 -4.32 7 -5 7 C-5 7.66 -5 8.32 -5 9 C-7.5 10.5 -7.5 10.5 -10 12 C-11.7041054 13.62836738 -13.38025441 15.28769752 -15 17 C-15.66 16.67 -16.32 16.34 -17 16 C-12.35344118 11.24222036 -7.61171109 6.68207665 -2.56640625 2.34765625 C-1.68751602 1.59150381 -0.81982149 0.81982149 0 0 Z " fill="#90F1F4" transform="translate(327,292)"/>
<path d="M0 0 C1.32 0.66 2.64 1.32 4 2 C1.04817547 3.53372142 -1.91239243 5.04972694 -4.875 6.5625 C-5.71675781 7.00013672 -6.55851562 7.43777344 -7.42578125 7.88867188 C-8.23144531 8.29794922 -9.03710938 8.70722656 -9.8671875 9.12890625 C-10.98262939 9.70233765 -10.98262939 9.70233765 -12.12060547 10.28735352 C-12.74080566 10.52252686 -13.36100586 10.7577002 -14 11 C-14.66 10.67 -15.32 10.34 -16 10 C-13.57804552 7.12744934 -11.40257297 6.29161081 -7.8125 5.3125 C-6.91144531 5.06113281 -6.01039063 4.80976563 -5.08203125 4.55078125 C-4.39496094 4.36902344 -3.70789063 4.18726563 -3 4 C-3 3.34 -3 2.68 -3 2 C-2.01 1.34 -1.02 0.68 0 0 Z " fill="#ACEBF2" transform="translate(401,274)"/>
<path d="M0 0 C0.66 0 1.32 0 2 0 C0.55676531 4.73789165 -1.37226733 8.98858151 -3.625 13.375 C-3.94984375 14.01566406 -4.2746875 14.65632813 -4.609375 15.31640625 C-5.40257407 16.87947501 -6.20077031 18.44000622 -7 20 C-7.33 20 -7.66 20 -8 20 C-8.26450133 16.04640112 -7.67764167 13.86965454 -5.625 10.5 C-3.78983821 7.38955628 -2.27112387 4.38966365 -1 1 C-0.67 0.67 -0.34 0.34 0 0 Z " fill="#9BF5F2" transform="translate(283,385)"/>
<path d="M0 0 C0.99 0.33 1.98 0.66 3 1 C0.73671476 3.0091515 -1.53480776 5.0072998 -3.8125 7 C-4.77639648 7.85851562 -4.77639648 7.85851562 -5.75976562 8.734375 C-6.69272461 9.54648437 -6.69272461 9.54648437 -7.64453125 10.375 C-8.21534424 10.87773437 -8.78615723 11.38046875 -9.37426758 11.8984375 C-11 13 -11 13 -14 13 C-9.375 7.125 -9.375 7.125 -6 6 C-5.505 5.319375 -5.01 4.63875 -4.5 3.9375 C-4.005 3.298125 -3.51 2.65875 -3 2 C-2.01 2 -1.02 2 0 2 C0 1.34 0 0.68 0 0 Z " fill="#90ECF0" transform="translate(350,306)"/>
<path d="M0 0 C6.70212766 1.93617021 6.70212766 1.93617021 9 5 C9 5.66 9 6.32 9 7 C9.598125 7.061875 10.19625 7.12375 10.8125 7.1875 C13.87143458 8.3236757 14.55041099 10.17330142 16 13 C12.06014326 11.32651716 8.98587525 8.67405957 5.75 5.9375 C5.19570313 5.47794922 4.64140625 5.01839844 4.0703125 4.54492188 C2.69175775 3.38876943 1.34298593 2.19728462 0 1 C0 0.67 0 0.34 0 0 Z " fill="#85ECEF" transform="translate(319,724)"/>
<path d="M0 0 C0.66 0.66 1.32 1.32 2 2 C1.319375 3.0828125 1.319375 3.0828125 0.625 4.1875 C-1.64527891 8.11682889 -2.89645543 11.22341571 -3.5 15.75 C-3.665 16.8225 -3.83 17.895 -4 19 C-4.66 19.33 -5.32 19.66 -6 20 C-5.52369209 14.47232137 -4.95647691 9.21727176 -3 4 C-2.01 3.67 -1.02 3.34 0 3 C0 2.01 0 1.02 0 0 Z " fill="#ECC1EB" transform="translate(648,413)"/>
<path d="M0 0 C5.3762621 2.91214197 10.17918273 6.24351901 15 10 C14.01 10.495 14.01 10.495 13 11 C7.27272727 8.54545455 7.27272727 8.54545455 6 6 C4.7625 5.566875 4.7625 5.566875 3.5 5.125 C1 4 1 4 0.1875 1.875 C0.125625 1.25625 0.06375 0.6375 0 0 Z " fill="#9AECF2" transform="translate(352,717)"/>
<path d="M0 0 C3 2 3 2 3.6159668 3.78759766 C3.72593994 4.48933105 3.83591309 5.19106445 3.94921875 5.9140625 C4.07490234 6.67460938 4.20058594 7.43515625 4.33007812 8.21875 C4.44802734 9.0128125 4.56597656 9.806875 4.6875 10.625 C4.88182617 11.82769531 4.88182617 11.82769531 5.08007812 13.0546875 C5.39828386 15.03463427 5.70065637 17.01711385 6 19 C4 18 4 18 2.9296875 15.234375 C2.58164062 14.08453125 2.23359375 12.9346875 1.875 11.75 C1.52179688 10.61046875 1.16859375 9.4709375 0.8046875 8.296875 C0.0875759 5.3588061 -0.16917814 3.00009239 0 0 Z " fill="#E6DEEF" transform="translate(393,548)"/>
<path d="M0 0 C2.63998971 1.31999485 2.70014976 2.36913312 3.625 5.125 C4.94626532 9.27470263 5.27625262 12.67204229 5 17 C1.67289832 12.00934748 -0.58827908 6.07888388 0 0 Z " fill="#B294D9" transform="translate(756,420)"/>
<path d="M0 0 C1 2 1 2 0.00390625 5.0390625 C-0.47175781 6.22242188 -0.94742188 7.40578125 -1.4375 8.625 C-1.91058594 9.81351562 -2.38367188 11.00203125 -2.87109375 12.2265625 C-3.24363281 13.14179688 -3.61617187 14.05703125 -4 15 C-4.33 15 -4.66 15 -5 15 C-5.17835515 10.45194365 -4.99785435 7.1205746 -3 3 C-2.34 3 -1.68 3 -1 3 C-0.67 2.01 -0.34 1.02 0 0 Z " fill="#6AF9F4" transform="translate(248,402)"/>
<path d="M0 0 C0.66 0 1.32 0 2 0 C0.60879688 2.96213105 -0.99589924 5.55423485 -2.9375 8.1875 C-3.69353516 9.22970703 -3.69353516 9.22970703 -4.46484375 10.29296875 C-6 12 -6 12 -9 13 C-8.67 12.01 -8.34 11.02 -8 10 C-7.34 10 -6.68 10 -6 10 C-5.896875 9.4225 -5.79375 8.845 -5.6875 8.25 C-4.89103535 5.64338842 -3.80934723 4.0264689 -2 2 C-1.34 2 -0.68 2 0 2 C0 1.34 0 0.68 0 0 Z " fill="#80F0F2" transform="translate(308,348)"/>
<path d="M0 0 C6.23192755 -0.38154658 10.42391275 0.15728885 16 3 C17.33285951 3.66761347 18.66608847 4.33449099 20 5 C13.04339229 4.42978625 6.68572695 2.98697306 0 1 C0 0.67 0 0.34 0 0 Z " fill="#B0E2EF" transform="translate(431,787)"/>
<path d="M0 0 C4.24476913 0.67916306 7.45577937 2.65947694 11 5 C11.9375 7.25 11.9375 7.25 12 9 C7.09198451 7.51272258 3.59508707 4.55364515 0 1 C0 0.67 0 0.34 0 0 Z " fill="#84E9EF" transform="translate(335,737)"/>
<path d="M0 0 C3.01693943 2.85674795 5.40554531 5.82348931 7.75 9.25 C8.67039062 10.58804688 8.67039062 10.58804688 9.609375 11.953125 C10.06828125 12.62859375 10.5271875 13.3040625 11 14 C10.67 14.66 10.34 15.32 10 16 C0 5.20547945 0 5.20547945 0 0 Z " fill="#EBE6F2" transform="translate(563,532)"/>
<path d="M0 0 C0 3 0 3 -1.53125 4.82421875 C-2.1809375 5.43910156 -2.830625 6.05398438 -3.5 6.6875 C-4.1496875 7.31011719 -4.799375 7.93273437 -5.46875 8.57421875 C-5.9740625 9.04472656 -6.479375 9.51523437 -7 10 C-7.5859375 8.1015625 -7.5859375 8.1015625 -8 6 C-6.625 4.375 -6.625 4.375 -5 3 C-4.67 2.34 -4.34 1.68 -4 1 C-1.9375 0.375 -1.9375 0.375 0 0 Z " fill="#A5A0DC" transform="translate(721,706)"/>
<path d="M0 0 C4.05819183 0.65503282 7.53971282 1.94559121 11.3125 3.5625 C12.38113281 4.01753906 13.44976562 4.47257813 14.55078125 4.94140625 C15.76314453 5.46541016 15.76314453 5.46541016 17 6 C17 6.33 17 6.66 17 7 C10.21017493 6.62964591 5.73115109 4.59523599 0 1 C0 0.67 0 0.34 0 0 Z " fill="#E3E5F0" transform="translate(426,605)"/>
<path d="M0 0 C0.6484375 1.765625 0.6484375 1.765625 1 4 C0.0390625 5.921875 0.0390625 5.921875 -1.375 7.75 C-1.83648438 8.36359375 -2.29796875 8.9771875 -2.7734375 9.609375 C-3.17820312 10.06828125 -3.58296875 10.5271875 -4 11 C-4.33 11 -4.66 11 -5 11 C-5.125 8.125 -5.125 8.125 -5 5 C-3 3 -3 3 -1 2 C-0.67 1.34 -0.34 0.68 0 0 Z " fill="#413DA9" transform="translate(523,583)"/>
<path d="M0 0 C0.33 0 0.66 0 1 0 C0.91276622 1.77174819 0.80458345 3.54247377 0.6875 5.3125 C0.62949219 6.29863281 0.57148437 7.28476562 0.51171875 8.30078125 C-0.04622813 11.24384457 -0.68540132 12.18182999 -3 14 C-2.88570603 12.22844346 -2.75816963 10.45773771 -2.625 8.6875 C-2.55539062 7.70136719 -2.48578125 6.71523438 -2.4140625 5.69921875 C-2 3 -2 3 0 0 Z " fill="#A47FD5" transform="translate(770,549)"/>
<path d="M0 0 C2.98017925 0.40610409 5.51067787 1.60662221 8.1875 2.9375 C8.88230469 3.27652344 9.57710938 3.61554688 10.29296875 3.96484375 C12 5 12 5 13 7 C8 5.33333333 3 3.66666667 -2 2 C-1.34 1.34 -0.68 0.68 0 0 Z " fill="#F0E7F5" transform="translate(481,498)"/>
<path d="M0 0 C-3.96 2.97 -7.92 5.94 -12 9 C-12.66 8.67 -13.32 8.34 -14 8 C-12.6875 6 -12.6875 6 -11 4 C-10.01 4 -9.02 4 -8 4 C-7.67 3.01 -7.34 2.02 -7 1 C-2.55696203 -1.27848101 -2.55696203 -1.27848101 0 0 Z " fill="#A5ECF2" transform="translate(367,297)"/>
<path d="M0 0 C2.48982535 2.27745789 4.10368997 4.62335238 5.75 7.5625 C6.19859375 8.34753906 6.6471875 9.13257813 7.109375 9.94140625 C7.40328125 10.62074219 7.6971875 11.30007813 8 12 C7.67 12.66 7.34 13.32 7 14 C3.61674448 11.74449632 3.21260848 10.69070741 1.8125 7 C1.46832031 6.113125 1.12414062 5.22625 0.76953125 4.3125 C0 2 0 2 0 0 Z " fill="#A6F7F5" transform="translate(280,630)"/>
<path d="M0 0 C3.86606247 3.22171872 5.03577168 6.09120127 6 11 C5.54296875 13.21875 5.54296875 13.21875 5 15 C4.16013916 13.06532058 3.32831973 11.12714871 2.5 9.1875 C2.0359375 8.10855469 1.571875 7.02960937 1.09375 5.91796875 C0 3 0 3 0 0 Z " fill="#A3FAF5" transform="translate(245,616)"/>
<path d="M0 0 C0.33 0.99 0.66 1.98 1 3 C-0.1446875 4.0828125 -0.1446875 4.0828125 -1.3125 5.1875 C-3.71854872 7.70545796 -5.26172335 10.02009717 -7 13 C-7.99 13.495 -7.99 13.495 -9 14 C-7.34966761 8.71893635 -3.90667286 3.90667286 0 0 Z " fill="#F7EAF8" transform="translate(417,417)"/>
<path d="M0 0 C0.66 0 1.32 0 2 0 C2.66 1.98 3.32 3.96 4 6 C2.875 7.5 2.875 7.5 1 9 C-2.1875 9.1875 -2.1875 9.1875 -5 9 C-2 7 -2 7 0 6 C0 4.02 0 2.04 0 0 Z " fill="#EAABE2" transform="translate(484,405)"/>
<path d="M0 0 C0.99 0.495 0.99 0.495 2 1 C2.29535506 2.96903371 2.58172087 4.94083576 2.78125 6.921875 C3.03359311 9.31913458 3.48512606 11.64629057 4 14 C3.67 13.34 3.34 12.68 3 12 C2.34 12 1.68 12 1 12 C0.01751476 7.9472484 -0.08159574 4.16138263 0 0 Z " fill="#A780D4" transform="translate(766,454)"/>
<path d="M0 0 C4.99275057 1.27721526 7.57611908 3.17330957 11 7 C10.67 7.99 10.34 8.98 10 10 C8.33037631 8.52417192 6.6643694 7.04425109 5 5.5625 C4.071875 4.73878906 3.14375 3.91507812 2.1875 3.06640625 C1.465625 2.38449219 0.74375 1.70257813 0 1 C0 0.67 0 0.34 0 0 Z " fill="#A5A7DC" transform="translate(679,313)"/>
<path d="M0 0 C-1.10789408 3.32368224 -1.48436217 3.61563093 -4.375 5.25 C-5.28378906 5.78367187 -5.28378906 5.78367187 -6.2109375 6.328125 C-8 7 -8 7 -11 6 C-3.8 0 -3.8 0 0 0 Z " fill="#86E4F2" transform="translate(385,255)"/>
<path d="M0 0 C0.33 0.66 0.66 1.32 1 2 C-3.46153846 8.92307692 -3.46153846 8.92307692 -6 11 C-6.66 11 -7.32 11 -8 11 C-6.63629701 8.00779732 -5.05091917 5.70973471 -2.875 3.25 C-2.33617187 2.63640625 -1.79734375 2.0228125 -1.2421875 1.390625 C-0.62730469 0.70226562 -0.62730469 0.70226562 0 0 Z " fill="#3945BC" transform="translate(491,596)"/>
<path d="M0 0 C0.99 0 1.98 0 3 0 C6.0080208 3.0080208 6.5289356 5.85463326 7 10 C6.34 10 5.68 10 5 10 C4.0234375 8.2421875 3.046875 6.484375 2.0703125 4.7265625 C0.99102726 2.8387386 0.99102726 2.8387386 -1 1 C-0.67 0.67 -0.34 0.34 0 0 Z " fill="#A29CD6" transform="translate(592,575)"/>
<path d="M0 0 C3.42717768 1.38530129 4.7293493 2.67477227 6.3125 6 C6.65925781 6.70125 7.00601563 7.4025 7.36328125 8.125 C7.67845703 9.053125 7.67845703 9.053125 8 10 C7.67 10.66 7.34 11.32 7 12 C5.83061933 10.18924982 4.66456267 8.37635257 3.5 6.5625 C2.8503125 5.55316406 2.200625 4.54382813 1.53125 3.50390625 C0 1 0 1 0 0 Z " fill="#F5F2F7" transform="translate(615,545)"/>
<path d="M0 0 C-2.34914492 2.34914492 -3.95679446 2.73140357 -7.125 3.625 C-8.49011719 4.01558594 -8.49011719 4.01558594 -9.8828125 4.4140625 C-10.58148438 4.60742188 -11.28015625 4.80078125 -12 5 C-11 2 -11 2 -9.375 0.8125 C-6.19617272 -0.27499354 -3.33338467 -0.1282071 0 0 Z " fill="#96E2F1" transform="translate(417,270)"/>
<path d="M0 0 C2.10353495 -0.0810206 4.20795952 -0.13919907 6.3125 -0.1875 C7.48425781 -0.22230469 8.65601563 -0.25710938 9.86328125 -0.29296875 C13 0 13 0 14.91796875 1.51171875 C15.27503906 2.00285156 15.63210938 2.49398437 16 3 C14.27054347 2.85764543 12.54144346 2.71095618 10.8125 2.5625 C9.36810547 2.44068359 9.36810547 2.44068359 7.89453125 2.31640625 C5.21350398 2.02333849 2.6337014 1.57296246 0 1 C0 0.67 0 0.34 0 0 Z " fill="#B1E0F1" transform="translate(456,793)"/>
<path d="M0 0 C2.05078125 0.03255208 4.1015625 0.06510417 6.15234375 0.09765625 C6.48234375 0.75765625 6.81234375 1.41765625 7.15234375 2.09765625 C1.09765625 3.07421875 1.09765625 3.07421875 -0.84765625 3.09765625 C-1.50765625 2.43765625 -2.16765625 1.77765625 -2.84765625 1.09765625 C-1.84765625 0.09765625 -1.84765625 0.09765625 0 0 Z " fill="#D9D9EC" transform="translate(399.84765625,604.90234375)"/>
<path d="M0 0 C0.33 0.99 0.66 1.98 1 3 C-1.64 5.31 -4.28 7.62 -7 10 C-7 7 -7 7 -5.46875 5.17578125 C-4.8190625 4.56089844 -4.169375 3.94601562 -3.5 3.3125 C-2.8503125 2.68988281 -2.200625 2.06726563 -1.53125 1.42578125 C-0.77328125 0.72001953 -0.77328125 0.72001953 0 0 Z " fill="#84F5F4" transform="translate(299,320)"/>
<path d="M0 0 C0.53625 0.78375 1.0725 1.5675 1.625 2.375 C4.30242842 5.33426299 6.18433025 6.04608256 10 7 C10 7.33 10 7.66 10 8 C6.6875 8.3125 6.6875 8.3125 3 8 C0.61835808 5.15739513 0 3.71594733 0 0 Z " fill="#F1F0F5" transform="translate(617,612)"/>
<path d="M0 0 C0.99 0 1.98 0 3 0 C5.125 4.625 5.125 4.625 4 8 C1.10067643 5.60490662 0.49831724 3.68754757 0 0 Z " fill="#7DF7F3" transform="translate(264,596)"/>
<path d="M0 0 C1.25127906 3.54667178 0.72285053 5.72253438 -0.4375 9.25 C-0.72496094 10.14203125 -1.01242187 11.0340625 -1.30859375 11.953125 C-1.53675781 12.62859375 -1.76492188 13.3040625 -2 14 C-3.15431591 10.05102453 -2.80958981 7.04794905 -2 3 C-1.34 2.01 -0.68 1.02 0 0 Z " fill="#C8B7E3" transform="translate(788,585)"/>
<path d="M0 0 C3.16115776 1.36983503 3.9927092 1.9890638 6 5 C5.625 7.1875 5.625 7.1875 5 9 C4.16094435 7.87926138 3.32892169 6.75325453 2.5 5.625 C2.0359375 4.99851562 1.571875 4.37203125 1.09375 3.7265625 C0 2 0 2 0 0 Z " fill="#9E8ACF" transform="translate(579,555)"/>
<path d="M0 0 C4.38889325 0.66498383 7.9811485 2.18757677 12 4 C8.64474971 5.11841676 8.02910146 4.91538821 4.875 3.6875 C4.17117188 3.42324219 3.46734375 3.15898437 2.7421875 2.88671875 C1 2 1 2 0 0 Z " fill="#F7F2FB" transform="translate(494,497)"/>
<path d="M0 0 C0.99 0.66 1.98 1.32 3 2 C1.71475739 2.86380259 0.42157581 3.71580369 -0.875 4.5625 C-1.59429687 5.03816406 -2.31359375 5.51382812 -3.0546875 6.00390625 C-3.69664062 6.33261719 -4.33859375 6.66132813 -5 7 C-5.66 6.67 -6.32 6.34 -7 6 C-6.67 5.34 -6.34 4.68 -6 4 C-5.01 4 -4.02 4 -3 4 C-2.67 3.01 -2.34 2.02 -2 1 C-1.34 0.67 -0.68 0.34 0 0 Z " fill="#91E8EF" transform="translate(382,284)"/>
<path d="M0 0 C0.66 0.33 1.32 0.66 2 1 C-1.32307692 5.8 -1.32307692 5.8 -4.75 6.8125 C-5.4925 6.874375 -6.235 6.93625 -7 7 C-4.66666667 4.66666667 -2.33333333 2.33333333 0 0 Z " fill="#97EFF4" transform="translate(342,280)"/>
<path d="M0 0 C-1.24176695 0.70226141 -2.49385599 1.38629109 -3.75 2.0625 C-4.79414063 2.63677734 -4.79414063 2.63677734 -5.859375 3.22265625 C-8.36140628 4.1312406 -9.5332355 3.88336837 -12 3 C-10.35 2.67 -8.7 2.34 -7 2 C-7 1.34 -7 0.68 -7 0 C-3.98968256 -0.93423645 -3.13349732 -1.04449911 0 0 Z " fill="#83D8F0" transform="translate(438,236)"/>
<path d="M0 0 C0.33 0 0.66 0 1 0 C1.36923077 6.52307692 1.36923077 6.52307692 -0.5 8.9375 C-0.995 9.288125 -1.49 9.63875 -2 10 C-1.125 2.25 -1.125 2.25 0 0 Z " fill="#B196DE" transform="translate(755,602)"/>
<path d="M0 0 C1.9955516 3.99110319 2.19546065 5.69986566 2 10 C1.01 10.33 0.02 10.66 -1 11 C-0.67 7.37 -0.34 3.74 0 0 Z " fill="#EAE8F2" transform="translate(530,563)"/>
<path d="M0 0 C3.5786304 1.65167557 6.74820188 3.78286492 10 6 C8.3125 6.8125 8.3125 6.8125 6 7 C3.48814606 4.8386373 1.49018781 2.98037561 0 0 Z " fill="#D2A0DC" transform="translate(415,471)"/>
<path d="M0 0 C0.99 0 1.98 0 3 0 C4.25664978 2.90600261 5 4.79604584 5 8 C4.34 8 3.68 8 3 8 C2.01 5.36 1.02 2.72 0 0 Z " fill="#B08ED6" transform="translate(779,413)"/>
<path d="M0 0 C0.66 0 1.32 0 2 0 C2 0.66 2 1.32 2 2 C2.66 2 3.32 2 4 2 C4.33 4.31 4.66 6.62 5 9 C4.01 8.67 3.02 8.34 2 8 C1.26953125 6.15234375 1.26953125 6.15234375 0.8125 3.9375 C0.65394531 3.20402344 0.49539063 2.47054688 0.33203125 1.71484375 C0.22246094 1.14894531 0.11289062 0.58304687 0 0 Z " fill="#F4D2EE" transform="translate(524,408)"/>
<path d="M0 0 C0.99 0.33 1.98 0.66 3 1 C1.02 3.31 -0.96 5.62 -3 8 C-3.33 7.01 -3.66 6.02 -4 5 C-2.0625 2.3125 -2.0625 2.3125 0 0 Z " fill="#86EFF2" transform="translate(317,337)"/>
<path d="M0 0 C2.97 0.33 5.94 0.66 9 1 C9.33 1.99 9.66 2.98 10 4 C6.7 3.01 3.4 2.02 0 1 C0 0.67 0 0.34 0 0 Z " fill="#96E0ED" transform="translate(400,776)"/>
<path d="M0 0 C0.66 0 1.32 0 2 0 C2 0.66 2 1.32 2 2 C2.99 2.33 3.98 2.66 5 3 C5.33 4.98 5.66 6.96 6 9 C2.91910327 6.22719294 1.31224548 3.93673644 0 0 Z " fill="#9DF9F2" transform="translate(267,661)"/>
<path d="M0 0 C3.08089673 2.77280706 4.68775452 5.06326356 6 9 C3.5625 7.875 3.5625 7.875 1 6 C0.1875 2.8125 0.1875 2.8125 0 0 Z " fill="#E3A9DC" transform="translate(531,420)"/>
<path d="M0 0 C2.64 0 5.28 0 8 0 C8 1.32 8 2.64 8 4 C6.68 3.67 5.36 3.34 4 3 C4.33 2.34 4.66 1.68 5 1 C3.35 1 1.7 1 0 1 C0 0.67 0 0.34 0 0 Z " fill="#D45CBF" transform="translate(656,405)"/>
<path d="M0 0 C2.875 0.25 2.875 0.25 6 1 C7.375 3.0625 7.375 3.0625 8 5 C4.62496331 3.8141763 2.35277269 2.72426311 0 0 Z " fill="#A5B1E1" transform="translate(646,289)"/>
<path d="M0 0 C4 1 4 1 5.8125 3.4375 C6.204375 4.283125 6.59625 5.12875 7 6 C6.67 6.66 6.34 7.32 6 8 C4.02 5.36 2.04 2.72 0 0 Z " fill="#8EF1F0" transform="translate(294,698)"/>
<path d="M0 0 C0.75 1.75 0.75 1.75 1 4 C-0.9375 6.25 -0.9375 6.25 -3 8 C-2.25 2.25 -2.25 2.25 0 0 Z " fill="#A291D6" transform="translate(747,672)"/>
<path d="M0 0 C0.33 0.66 0.66 1.32 1 2 C-0.65 3.65 -2.3 5.3 -4 7 C-4 4 -4 4 -2 1.8125 C-1.34 1.214375 -0.68 0.61625 0 0 Z " fill="#AB9BDF" transform="translate(732,651)"/>
<path d="M0 0 C0.6875 1.75 0.6875 1.75 1 4 C-0.4375 6.25 -0.4375 6.25 -2 8 C-2.33 7.01 -2.66 6.02 -3 5 C-1.5625 2.3125 -1.5625 2.3125 0 0 Z " fill="#9A81D0" transform="translate(763,646)"/>
<path d="M0 0 C0.66 0 1.32 0 2 0 C1.34 2.97 0.68 5.94 0 9 C-0.33 9 -0.66 9 -1 9 C-1.09765625 2.84765625 -1.09765625 2.84765625 -1 1 C-0.67 0.67 -0.34 0.34 0 0 Z " fill="#8E60CC" transform="translate(762,583)"/>
<path d="M0 0 C2.52259061 1.97420135 2.9929808 2.96745642 3.6875 6.1875 C3.790625 7.115625 3.89375 8.04375 4 9 C1.27573689 6.64722731 0.1858237 4.37503669 -1 1 C-0.67 0.67 -0.34 0.34 0 0 Z " fill="#9F93D2" transform="translate(588,566)"/>
<path d="M0 0 C0.33 0.66 0.66 1.32 1 2 C0.22265625 3.7265625 0.22265625 3.7265625 -0.9375 5.625 C-1.618125 6.73875 -2.29875 7.8525 -3 9 C-4 7 -4 7 -3.1875 3.9375 C-2 1 -2 1 0 0 Z " fill="#5FF7F5" transform="translate(264,369)"/>
<path d="" fill="#FDFEFE" transform="translate(0,0)"/>
<path d="" fill="#FEFDFF" transform="translate(0,0)"/>
<path d="" fill="#FDFEFF" transform="translate(0,0)"/>
<path d="" fill="#FFFEFE" transform="translate(0,0)"/>
<path d="" fill="#FDFDFE" transform="translate(0,0)"/>
<path d="" fill="#FCFDFF" transform="translate(0,0)"/>
<path d="" fill="#FFFEFF" transform="translate(0,0)"/>
</svg>
